<svg width="48" height="48" viewBox="0 0 48 48" fill="none" xmlns="http://www.w3.org/2000/svg">
<g filter="url(#filter0_ii_5640_7585)">
<circle cx="24" cy="24" r="24" fill="#AA5C4E"/>
</g>
<path d="M16 29.5383C18.8718 25.4623 25.8462 20.8755 32 29.5383" stroke="#1F1E1F" stroke-width="1.28502" stroke-linecap="round"/>
<path d="M30.7693 19.6928C30.7693 21.0523 29.6672 22.1544 28.3077 22.1544C26.9483 22.1544 25.8462 21.0523 25.8462 19.6928C25.8462 18.3334 26.9483 17.8467 28.3077 17.8467C29.6672 17.8467 30.7693 18.3334 30.7693 19.6928Z" fill="#1F1E1F"/>
<line x1="27.6698" y1="18.4577" x2="34.7986" y2="16.0031" stroke="#1F1E1F" stroke-width="1.28502" stroke-linecap="round"/>
<path d="M23.385 19.6919C23.385 21.0513 22.2829 22.1534 20.9235 22.1534C19.564 22.1534 18.4619 21.0513 18.4619 19.6919C18.4619 18.3324 19.564 17.8457 20.9235 17.8457C22.2829 17.8457 23.385 18.3324 23.385 19.6919Z" fill="#1F1E1F"/>
<line x1="21.9747" y1="18.7017" x2="15.0938" y2="15.6197" stroke="#1F1E1F" stroke-width="1.28502" stroke-linecap="round"/>
<defs>
<filter id="filter0_ii_5640_7585" x="0" y="0" width="48" height="48" filterUnits="userSpaceOnUse" color-interpolation-filters="sRGB">
<feFlood flood-opacity="0" result="BackgroundImageFix"/>
<feBlend mode="normal" in="SourceGraphic" in2="BackgroundImageFix" result="shape"/>
<feColorMatrix in="SourceAlpha" type="matrix" values="0 0 0 0 0 0 0 0 0 0 0 0 0 0 0 0 0 0 127 0" result="hardAlpha"/>
<feMorphology radius="17.9903" operator="dilate" in="SourceAlpha" result="effect1_innerShadow_5640_7585"/>
<feOffset dx="-24.4154" dy="-23.1304"/>
<feGaussianBlur stdDeviation="5.52558"/>
<feComposite in2="hardAlpha" operator="arithmetic" k2="-1" k3="1"/>
<feColorMatrix type="matrix" values="0 0 0 0 0.479342 0 0 0 0 0.265916 0 0 0 0 0.227608 0 0 0 1 0"/>
<feBlend mode="normal" in2="shape" result="effect1_innerShadow_5640_7585"/>
<feColorMatrix in="SourceAlpha" type="matrix" values="0 0 0 0 0 0 0 0 0 0 0 0 0 0 0 0 0 0 127 0" result="hardAlpha"/>
<feMorphology radius="19.2753" operator="dilate" in="SourceAlpha" result="effect2_innerShadow_5640_7585"/>
<feOffset dx="-11.5652" dy="-23.1304"/>
<feGaussianBlur stdDeviation="2.57004"/>
<feComposite in2="hardAlpha" operator="arithmetic" k2="-1" k3="1"/>
<feColorMatrix type="matrix" values="0 0 0 0 0.407734 0 0 0 0 0.246472 0 0 0 0 0.217527 0 0 0 1 0"/>
<feBlend mode="normal" in2="effect1_innerShadow_5640_7585" result="effect2_innerShadow_5640_7585"/>
</filter>
</defs>
</svg>
