<svg width="48" height="48" viewBox="0 0 48 48" fill="none" xmlns="http://www.w3.org/2000/svg">
<g filter="url(#filter0_ii_5640_7570)">
<circle cx="24" cy="24" r="24" fill="#EDEAE3"/>
</g>
<path d="M34.4074 24.6154C35.1171 24.6154 35.7043 25.1957 35.57 25.8926C35.4366 26.5846 35.1951 27.263 34.8492 27.9123C34.2926 28.9576 33.4767 29.9074 32.4481 30.7074C31.4195 31.5074 30.1984 32.142 28.8545 32.575C27.5105 33.0079 26.0701 33.2308 24.6155 33.2308C23.1609 33.2308 21.7205 33.0079 20.3765 32.575C19.0326 32.142 17.8115 31.5074 16.7829 30.7074C15.7543 29.9074 14.9384 28.9576 14.3818 27.9123C14.0359 27.263 13.7943 26.5846 13.661 25.8926C13.5267 25.1957 14.1139 24.6154 14.8236 24.6154L24.6155 24.6154H34.4074Z" fill="#1F1E1F"/>
<circle cx="20.923" cy="19.692" r="2.46154" fill="#1F1E1F"/>
<circle cx="28.3077" cy="19.692" r="2.46154" fill="#1F1E1F"/>
<defs>
<filter id="filter0_ii_5640_7570" x="0" y="0" width="48" height="48" filterUnits="userSpaceOnUse" color-interpolation-filters="sRGB">
<feFlood flood-opacity="0" result="BackgroundImageFix"/>
<feBlend mode="normal" in="SourceGraphic" in2="BackgroundImageFix" result="shape"/>
<feColorMatrix in="SourceAlpha" type="matrix" values="0 0 0 0 0 0 0 0 0 0 0 0 0 0 0 0 0 0 127 0" result="hardAlpha"/>
<feMorphology radius="17.9903" operator="dilate" in="SourceAlpha" result="effect1_innerShadow_5640_7570"/>
<feOffset dx="-24.4154" dy="-23.1304"/>
<feGaussianBlur stdDeviation="5.52558"/>
<feComposite in2="hardAlpha" operator="arithmetic" k2="-1" k3="1"/>
<feColorMatrix type="matrix" values="0 0 0 0 0.76632 0 0 0 0 0.737656 0 0 0 0 0.670775 0 0 0 1 0"/>
<feBlend mode="normal" in2="shape" result="effect1_innerShadow_5640_7570"/>
<feColorMatrix in="SourceAlpha" type="matrix" values="0 0 0 0 0 0 0 0 0 0 0 0 0 0 0 0 0 0 127 0" result="hardAlpha"/>
<feMorphology radius="19.2753" operator="dilate" in="SourceAlpha" result="effect2_innerShadow_5640_7570"/>
<feOffset dx="-11.5652" dy="-23.1304"/>
<feGaussianBlur stdDeviation="2.57004"/>
<feComposite in2="hardAlpha" operator="arithmetic" k2="-1" k3="1"/>
<feColorMatrix type="matrix" values="0 0 0 0 0.608793 0 0 0 0 0.55757 0 0 0 0 0.43805 0 0 0 1 0"/>
<feBlend mode="normal" in2="effect1_innerShadow_5640_7570" result="effect2_innerShadow_5640_7570"/>
</filter>
</defs>
</svg>
