<svg width="270" height="417" viewBox="0 0 270 417" fill="none" xmlns="http://www.w3.org/2000/svg">
<path d="M249.834 385.395C188.888 401.528 72.0745 392.117 21.2861 385.395L29.1285 236.391C30.0247 231.909 33.9832 230.789 35.8504 230.789H234.149C238.631 230.789 240.498 234.524 240.871 236.391L249.834 385.395Z" fill="#9F3417"/>
<g clip-path="url(#clip0_5640_7646)">
<rect x="24.6475" y="8.96387" width="217.344" height="217.344" rx="108.672" fill="#D2D2D2" fill-opacity="0.1"/>
<g filter="url(#filter1_ii_5640_7646)">
<circle cx="142.907" cy="180.999" r="20.6409" transform="rotate(-19.709 142.907 180.999)" fill="#D4B2A9"/>
</g>
<ellipse cx="138.17" cy="178.761" rx="2.11702" ry="2.11701" transform="rotate(-19.709 138.17 178.761)" fill="#1F1E1F"/>
<ellipse cx="145.146" cy="176.262" rx="2.11702" ry="2.11701" transform="rotate(-19.709 145.146 176.262)" fill="#1F1E1F"/>
<path d="M136.149 185.671L151.096 180.316" stroke="#1F1E1F" stroke-width="1.37606" stroke-linecap="round"/>
<g filter="url(#filter2_ii_5640_7646)">
<circle cx="115.465" cy="184.927" r="20.6409" transform="rotate(29.1358 115.465 184.927)" fill="#E7D7C7"/>
</g>
<path d="M122.262 187.984C122.611 187.834 122.773 187.43 122.624 187.081C122.474 186.731 122.07 186.569 121.721 186.719L121.991 187.351L122.262 187.984ZM109.972 180.651L109.286 180.704C109.44 182.711 110.254 185.538 112.289 187.375C114.393 189.274 117.629 189.965 122.262 187.984L121.991 187.351L121.721 186.719C117.442 188.549 114.815 187.801 113.211 186.353C111.537 184.842 110.797 182.413 110.658 180.599L109.972 180.651Z" fill="#1F1E1F"/>
<ellipse cx="120.044" cy="183.237" rx="2.11702" ry="2.11701" transform="rotate(29.1358 120.044 183.237)" fill="#1F1E1F"/>
<ellipse cx="114.496" cy="180.144" rx="2.11702" ry="2.11701" transform="rotate(29.1358 114.496 180.144)" fill="#1F1E1F"/>
<g filter="url(#filter3_ii_5640_7646)">
<circle cx="71.4597" cy="159.729" r="20.6409" transform="rotate(-91.0318 71.4597 159.729)" fill="#AA5C4E"/>
</g>
<path d="M76.3466 166.522C72.7972 164.116 68.745 158.19 76.0988 152.764" stroke="#1F1E1F" stroke-width="1.37606" stroke-linecap="round"/>
<path d="M67.6529 153.974C68.8219 153.953 69.7866 154.884 69.8077 156.053C69.8287 157.222 68.8981 158.187 67.7291 158.208C66.5601 158.229 66.1245 157.289 66.1035 156.12C66.0824 154.951 66.4839 153.995 67.6529 153.974Z" fill="#1F1E1F"/>
<line x1="66.4646" y1="156.579" x2="64.3362" y2="150.741" stroke="#1F1E1F" stroke-width="1.37606" stroke-linecap="round"/>
<path d="M67.7671 160.323C68.9361 160.302 69.9009 161.233 69.9219 162.402C69.943 163.571 69.0124 164.535 67.8434 164.556C66.6744 164.577 66.2388 163.637 66.2177 162.468C66.1967 161.299 66.5981 160.344 67.7671 160.323Z" fill="#1F1E1F"/>
<line x1="67.0075" y1="161.729" x2="64.5702" y2="167.444" stroke="#1F1E1F" stroke-width="1.37606" stroke-linecap="round"/>
<g filter="url(#filter4_ii_5640_7646)">
<circle cx="220.927" cy="169.392" r="16.7282" transform="rotate(-91.0318 220.927 169.392)" fill="#AA5C4E"/>
</g>
<path d="M224.888 174.895C222.011 172.945 218.727 168.142 224.687 163.745" stroke="#1F1E1F" stroke-width="1.37606" stroke-linecap="round"/>
<path d="M217.842 164.725C218.789 164.708 219.571 165.462 219.588 166.409C219.605 167.357 218.851 168.138 217.904 168.156C216.956 168.173 216.603 167.411 216.586 166.463C216.569 165.516 216.895 164.742 217.842 164.725Z" fill="#1F1E1F"/>
<line x1="216.712" y1="166.757" x2="215.077" y2="162.271" stroke="#1F1E1F" stroke-width="1.37606" stroke-linecap="round"/>
<path d="M217.935 169.876C218.882 169.859 219.664 170.613 219.681 171.561C219.698 172.508 218.944 173.29 217.997 173.307C217.049 173.324 216.696 172.562 216.679 171.615C216.662 170.667 216.987 169.893 217.935 169.876Z" fill="#1F1E1F"/>
<line x1="217.388" y1="171.187" x2="215.515" y2="175.579" stroke="#1F1E1F" stroke-width="1.37606" stroke-linecap="round"/>
<g filter="url(#filter5_ii_5640_7646)">
<circle cx="95.101" cy="170.933" r="20.6409" transform="rotate(-40.4972 95.101 170.933)" fill="#EDEAE3"/>
</g>
<path d="M102.043 165.699C102.621 165.205 103.507 165.27 103.851 165.947C104.086 166.409 104.263 166.906 104.38 167.432C104.599 168.427 104.596 169.504 104.37 170.601C104.144 171.699 103.7 172.796 103.063 173.83C102.426 174.864 101.608 175.814 100.657 176.626C99.7058 177.439 98.6393 178.097 97.5185 178.565C96.3978 179.032 95.2447 179.299 94.1252 179.351C93.0057 179.402 91.9416 179.236 90.9938 178.864C90.4925 178.667 90.0289 178.414 89.6098 178.109C88.9948 177.663 89.0694 176.778 89.6473 176.285L95.8453 170.992L102.043 165.699Z" fill="#1F1E1F"/>
<ellipse cx="90.6814" cy="169.836" rx="2.11702" ry="2.11701" transform="rotate(-40.4972 90.6814 169.836)" fill="#1F1E1F"/>
<ellipse cx="95.513" cy="165.709" rx="2.11702" ry="2.11701" transform="rotate(-40.4972 95.513 165.709)" fill="#1F1E1F"/>
<g filter="url(#filter6_ii_5640_7646)">
<circle cx="173.723" cy="173.724" r="20.6409" transform="rotate(29.1358 173.723 173.724)" fill="#E7D7C7"/>
</g>
<path d="M180.518 176.785C180.867 176.635 181.029 176.231 180.88 175.881C180.73 175.532 180.326 175.37 179.976 175.519L180.247 176.152L180.518 176.785ZM168.228 169.452L167.542 169.505C167.696 171.512 168.51 174.339 170.545 176.175C172.649 178.075 175.885 178.766 180.518 176.785L180.247 176.152L179.976 175.519C175.698 177.35 173.071 176.602 171.467 175.154C169.793 173.643 169.053 171.214 168.914 169.399L168.228 169.452Z" fill="#1F1E1F"/>
<ellipse cx="178.3" cy="172.034" rx="2.11702" ry="2.11701" transform="rotate(29.1358 178.3 172.034)" fill="#1F1E1F"/>
<ellipse cx="172.752" cy="168.944" rx="2.11702" ry="2.11701" transform="rotate(29.1358 172.752 168.944)" fill="#1F1E1F"/>
<g filter="url(#filter7_ii_5640_7646)">
<circle cx="196.003" cy="162.394" r="16.6162" transform="rotate(137.764 196.003 162.394)" fill="#C88973"/>
</g>
<path d="M197.528 155.827C197.953 159.253 196.513 164.85 189.327 163.273" stroke="#1F1E1F" stroke-width="1.10775" stroke-linecap="round"/>
<ellipse cx="196.115" cy="166.321" rx="1.70423" ry="1.70423" transform="rotate(137.764 196.115 166.321)" fill="#1F1E1F"/>
<ellipse cx="199.9" cy="162.882" rx="1.70423" ry="1.70423" transform="rotate(137.764 199.9 162.882)" fill="#1F1E1F"/>
<g filter="url(#filter8_ii_5640_7646)">
<circle cx="191.177" cy="194.13" r="20.6409" transform="rotate(-91.0318 191.177 194.13)" fill="#AA5C4E"/>
</g>
<path d="M196.065 200.924C192.515 198.517 188.463 192.591 195.817 187.165" stroke="#1F1E1F" stroke-width="1.37606" stroke-linecap="round"/>
<path d="M187.369 188.375C188.538 188.354 189.503 189.284 189.524 190.453C189.545 191.622 188.614 192.587 187.445 192.608C186.276 192.629 185.841 191.689 185.82 190.52C185.799 189.351 186.2 188.396 187.369 188.375Z" fill="#1F1E1F"/>
<line x1="186.181" y1="190.979" x2="184.053" y2="185.141" stroke="#1F1E1F" stroke-width="1.37606" stroke-linecap="round"/>
<path d="M187.483 194.724C188.652 194.703 189.617 195.634 189.638 196.803C189.659 197.972 188.728 198.937 187.559 198.958C186.39 198.979 185.955 198.039 185.934 196.87C185.913 195.701 186.314 194.745 187.483 194.724Z" fill="#1F1E1F"/>
<line x1="186.724" y1="196.134" x2="184.287" y2="201.85" stroke="#1F1E1F" stroke-width="1.37606" stroke-linecap="round"/>
<g filter="url(#filter9_ii_5640_7646)">
<circle cx="30.0812" cy="195.406" r="16.018" transform="rotate(55.3208 30.0812 195.406)" fill="#AA5C4E"/>
</g>
<path d="M24.003 193.12C27.3307 193.148 32.4967 195.234 30.079 201.901" stroke="#1F1E1F" stroke-width="1.06787" stroke-linecap="round"/>
<path d="M35.0159 197.489C34.2698 198.005 33.2464 197.819 32.7301 197.073C32.2139 196.327 32.4003 195.303 33.1464 194.787C33.8926 194.271 34.5782 194.691 35.0944 195.437C35.6107 196.183 35.7621 196.973 35.0159 197.489Z" fill="#1F1E1F"/>
<line x1="34.6649" y1="195.298" x2="38.5499" y2="198.154" stroke="#1F1E1F" stroke-width="1.06787" stroke-linecap="round"/>
<path d="M32.2117 193.437C31.4656 193.954 30.4422 193.767 29.9259 193.021C29.4097 192.275 29.5961 191.252 30.3422 190.735C31.0884 190.219 31.774 190.639 32.2902 191.385C32.8065 192.131 32.9579 192.921 32.2117 193.437Z" fill="#1F1E1F"/>
<line x1="32.0966" y1="192.202" x2="31.2136" y2="187.461" stroke="#1F1E1F" stroke-width="1.06787" stroke-linecap="round"/>
<g filter="url(#filter10_ii_5640_7646)">
<circle cx="127.69" cy="210.596" r="20.6409" transform="rotate(-40.4972 127.69 210.596)" fill="#EDEAE3"/>
</g>
<path d="M134.634 205.361C135.212 204.867 136.097 204.932 136.442 205.609C136.677 206.071 136.854 206.568 136.97 207.094C137.19 208.089 137.187 209.166 136.961 210.263C136.735 211.361 136.291 212.458 135.654 213.492C135.017 214.526 134.199 215.476 133.248 216.288C132.297 217.101 131.23 217.76 130.109 218.227C128.989 218.694 127.836 218.961 126.716 219.013C125.597 219.064 124.532 218.899 123.585 218.526C123.083 218.329 122.62 218.076 122.201 217.772C121.586 217.325 121.66 216.44 122.238 215.947L128.436 210.654L134.634 205.361Z" fill="#1F1E1F"/>
<ellipse cx="123.271" cy="209.499" rx="2.11702" ry="2.11701" transform="rotate(-40.4972 123.271 209.499)" fill="#1F1E1F"/>
<ellipse cx="128.103" cy="205.372" rx="2.11702" ry="2.11701" transform="rotate(-40.4972 128.103 205.372)" fill="#1F1E1F"/>
<g filter="url(#filter11_ii_5640_7646)">
<circle cx="158.924" cy="208.219" r="20.6409" transform="rotate(-127.86 158.924 208.219)" fill="#D4B2A9"/>
</g>
<ellipse cx="158.273" cy="213.417" rx="2.11702" ry="2.11701" transform="rotate(-127.86 158.273 213.417)" fill="#1F1E1F"/>
<ellipse cx="153.726" cy="207.566" rx="2.11702" ry="2.11701" transform="rotate(-127.86 153.726 207.566)" fill="#1F1E1F"/>
<path d="M165.468 213.185L155.723 200.649" stroke="#1F1E1F" stroke-width="1.37606" stroke-linecap="round"/>
<g filter="url(#filter12_ii_5640_7646)">
<circle cx="62.647" cy="188.795" r="20.6409" transform="rotate(29.1358 62.647 188.795)" fill="#E7D7C7"/>
</g>
<path d="M69.4419 191.856C69.7913 191.706 69.9533 191.302 69.8039 190.953C69.6544 190.603 69.2501 190.441 68.9007 190.591L69.1713 191.223L69.4419 191.856ZM57.1519 184.523L56.4658 184.576C56.62 186.583 57.4344 189.41 59.469 191.247C61.5732 193.146 64.8092 193.838 69.4419 191.856L69.1713 191.223L68.9007 190.591C64.6222 192.421 61.9953 191.673 60.391 190.225C58.717 188.714 57.9772 186.285 57.8379 184.471L57.1519 184.523Z" fill="#1F1E1F"/>
<ellipse cx="67.2256" cy="187.105" rx="2.11702" ry="2.11701" transform="rotate(29.1358 67.2256 187.105)" fill="#1F1E1F"/>
<ellipse cx="61.6768" cy="184.012" rx="2.11702" ry="2.11701" transform="rotate(29.1358 61.6768 184.012)" fill="#1F1E1F"/>
<g filter="url(#filter13_ii_5640_7646)">
<circle cx="94.1373" cy="199.449" r="20.6409" transform="rotate(137.764 94.1373 199.449)" fill="#C88973"/>
</g>
<path d="M96.0309 191.297C96.5586 195.552 94.7693 202.505 85.8428 200.547" stroke="#1F1E1F" stroke-width="1.37606" stroke-linecap="round"/>
<ellipse cx="94.2757" cy="204.327" rx="2.11702" ry="2.11701" transform="rotate(137.764 94.2757 204.327)" fill="#1F1E1F"/>
<ellipse cx="98.9793" cy="200.06" rx="2.11702" ry="2.11701" transform="rotate(137.764 98.9793 200.06)" fill="#1F1E1F"/>
<g filter="url(#filter14_ii_5640_7646)">
<circle cx="11.1752" cy="193.744" r="20.6409" transform="rotate(-40.4972 11.1752 193.744)" fill="#EDEAE3"/>
</g>
<g filter="url(#filter15_ii_5640_7646)">
<circle cx="37.5675" cy="174.724" r="20.6409" transform="rotate(-19.709 37.5675 174.724)" fill="#D4B2A9"/>
</g>
<ellipse cx="32.8305" cy="172.49" rx="2.11702" ry="2.11701" transform="rotate(-19.709 32.8305 172.49)" fill="#1F1E1F"/>
<ellipse cx="39.8066" cy="169.992" rx="2.11702" ry="2.11701" transform="rotate(-19.709 39.8066 169.992)" fill="#1F1E1F"/>
<path d="M30.8091 179.399L45.7565 174.045" stroke="#1F1E1F" stroke-width="1.37606" stroke-linecap="round"/>
<g filter="url(#filter16_ii_5640_7646)">
<circle cx="37.5675" cy="174.724" r="20.6409" transform="rotate(-19.709 37.5675 174.724)" fill="#D4B2A9"/>
</g>
<ellipse cx="32.8305" cy="172.49" rx="2.11702" ry="2.11701" transform="rotate(-19.709 32.8305 172.49)" fill="#1F1E1F"/>
<ellipse cx="39.8066" cy="169.992" rx="2.11702" ry="2.11701" transform="rotate(-19.709 39.8066 169.992)" fill="#1F1E1F"/>
<path d="M30.8091 179.399L45.7565 174.045" stroke="#1F1E1F" stroke-width="1.37606" stroke-linecap="round"/>
<rect x="126.768" y="24.6494" width="12.3845" height="26.1451" fill="#B2B2B2"/>
<path d="M123.749 38.6076L127.973 38.3651L120.334 64.852L116.394 63.6968L123.749 38.6076Z" fill="#B2B2B2"/>
<path d="M137.777 37.0638L141.905 37.7239L148.01 63.8922L144.01 64.8197L137.777 37.0638Z" fill="#B2B2B2"/>
<rect x="125.393" y="50.7979" width="15.1367" height="2.75212" fill="#535353"/>
<rect x="125.393" y="54.9248" width="15.1367" height="2.75212" fill="#535353"/>
<rect x="130.897" y="53.5498" width="4.12818" height="1.37606" fill="#2D1406"/>
<path d="M132.272 56.3071C103.1 60.7105 114.154 88.4151 123.328 101.717C107.916 68.6951 123.328 61.8099 132.961 62.495C156.079 65.2471 148.097 89.7898 141.217 101.717C162.684 64.8387 144.198 56.0777 132.272 56.3071Z" fill="#535353"/>
<path d="M67.2202 224.068V218.467L123.237 224.068H67.2202Z" stroke="#909E7D" stroke-width="1.12033" stroke-linecap="round"/>
</g>
<rect x="25.1475" y="9.46387" width="216.344" height="216.344" rx="108.172" stroke="#F0EFE7"/>
<path d="M76.1826 22.4067C76.1826 21.1692 77.1858 20.166 78.4233 20.166H184.759C185.997 20.166 187 21.1692 187 22.4067V24.6473H76.1826V22.4067Z" fill="#473F32"/>
<path d="M116.673 6.72199C116.673 3.00954 119.683 0 123.395 0H135.525C139.237 0 142.247 3.00954 142.247 6.72199V6.72199H116.673V6.72199Z" fill="#AFC1B1"/>
<path d="M181.672 20.2267L79.3794 20.2268C85.9789 15.7632 104.196 6.71883 128.395 5.60342C147.753 4.71109 172.873 15.3932 181.672 20.2267Z" fill="#9F3417"/>
<path d="M3.36084 393.237C6.04964 386.067 16.4314 385.021 21.2862 385.395C72.0745 392.117 188.888 401.527 249.834 385.395C261.485 385.395 265.145 389.876 265.519 392.117V401.079C203.676 413.627 64.9791 406.308 3.36084 401.079V393.237Z" fill="#9F3417"/>
<path d="M21.2861 385.396C72.0745 392.117 188.888 401.528 249.834 385.396" stroke="#7D2811" stroke-width="2.24066"/>
<path d="M265.519 401.08C203.676 413.628 64.9793 406.308 3.361 401.08C2.24066 401.08 0 401.752 0 404.441C0 407.802 0 408.922 3.361 408.922C6.72199 408.922 216.224 419.005 270 407.802V403.321C270 402.574 269.104 401.08 265.519 401.08Z" fill="#AFC1B1"/>
<path d="M103.07 394.359C127.27 398.84 154.979 396.226 165.809 394.359C167.601 392.567 162.822 390.625 160.207 389.877C149.378 389.131 125.029 388.085 114.274 389.877C103.519 391.67 102.324 393.612 103.07 394.359Z" fill="#18100D"/>
<path d="M103.07 349.545C103.07 347.07 105.077 345.063 107.552 345.063H161.328C163.803 345.063 165.809 347.07 165.809 349.545V394.358H103.07V349.545Z" fill="#18100D"/>
<path d="M35.8506 228.549C35.8506 226.074 37.8569 224.067 40.3319 224.067H228.548C231.023 224.067 233.029 226.074 233.029 228.549V230.789H35.8506V228.549Z" fill="url(#paint0_linear_5640_7646)"/>
<path d="M67.2197 213.571C67.2197 210.837 69.6476 208.74 72.3531 209.138L98.589 212.996L119.875 215.105H134.44H147.884L165.809 212.996L194.328 209.082C197.02 208.712 199.419 210.804 199.419 213.521V224.067H67.2197V213.571Z" fill="#473F32"/>
<path d="M103.07 394.358V406.681M165.809 393.237V407.802" stroke="#7D2811" stroke-width="2.24066"/>
<path d="M103.07 411.162V394.357C127.269 398.839 154.979 396.225 165.809 394.357V410.042C165.809 415.42 162.074 416.764 160.207 416.764H113.153C105.983 417.66 103.444 413.403 103.07 411.162Z" fill="#9F3417"/>
<rect x="82.9048" y="230.789" width="103.071" height="103.071" fill="#7D2811"/>
<path d="M86.2654 230.789H182.614L183.734 232.847V331.619H85.145V232.847L86.2654 230.789Z" fill="#AFC1B1"/>
<circle cx="135" cy="285.832" r="36" fill="url(#paint1_radial_5640_7646)"/>
<circle cx="133.32" cy="282.989" r="32.9492" fill="#DEEEE4" stroke="#909E7D" stroke-width="3.56208"/>
<circle cx="134.21" cy="282.094" r="19.5914" fill="#AFC1B1"/>
<path d="M86.2654 230.789H182.614L183.734 233.03H85.145L86.2654 230.789Z" fill="#D9D9D9"/>
<path d="M80.6641 333.859H85.1454V389.876L80.6641 389.055V333.859Z" fill="url(#paint2_linear_5640_7646)"/>
<path d="M33.4998 231.332L37.2344 230.959L31.3393 386.155L26.9476 383.71L33.4998 231.332Z" fill="url(#paint3_linear_5640_7646)"/>
<path d="M241 236.331L239.5 233.332L236.5 233.331L244.984 385.832L249.5 384.332L241 236.331Z" fill="url(#paint4_linear_5640_7646)"/>
<path d="M188.216 333.859H183.734V394.357L188.216 393.216V333.859Z" fill="url(#paint5_linear_5640_7646)"/>
<g filter="url(#filter17_d_5640_7646)">
<rect x="125.305" y="246.475" width="16.0294" height="73.0227" rx="2" fill="#DEEEE4"/>
<path d="M125.305 248.475C125.305 247.37 126.2 246.475 127.305 246.475H139.334C140.439 246.475 141.334 247.37 141.334 248.475V251.818H125.305V248.475Z" fill="#909E7D"/>
<path d="M125.305 314.149H141.334V317.493C141.334 318.597 140.439 319.493 139.334 319.493H127.305C126.2 319.493 125.305 318.597 125.305 317.493V314.149Z" fill="#909E7D"/>
</g>
<g filter="url(#filter18_i_5640_7646)">
<rect x="130.648" y="260.723" width="5.34312" height="44.526" fill="#AFC1B1"/>
</g>
<defs>
<filter id="filter1_ii_5640_7646" x="122.261" y="160.353" width="41.293" height="41.293" filterUnits="userSpaceOnUse" color-interpolation-filters="sRGB">
<feFlood flood-opacity="0" result="BackgroundImageFix"/>
<feBlend mode="normal" in="SourceGraphic" in2="BackgroundImageFix" result="shape"/>
<feColorMatrix in="SourceAlpha" type="matrix" values="0 0 0 0 0 0 0 0 0 0 0 0 0 0 0 0 0 0 127 0" result="hardAlpha"/>
<feMorphology radius="19.2648" operator="dilate" in="SourceAlpha" result="effect1_innerShadow_5640_7646"/>
<feOffset dx="-26.1451" dy="-24.7691"/>
<feGaussianBlur stdDeviation="5.91706"/>
<feComposite in2="hardAlpha" operator="arithmetic" k2="-1" k3="1"/>
<feColorMatrix type="matrix" values="0 0 0 0 0.681922 0 0 0 0 0.541038 0 0 0 0 0.503745 0 0 0 1 0"/>
<feBlend mode="normal" in2="shape" result="effect1_innerShadow_5640_7646"/>
<feColorMatrix in="SourceAlpha" type="matrix" values="0 0 0 0 0 0 0 0 0 0 0 0 0 0 0 0 0 0 127 0" result="hardAlpha"/>
<feMorphology radius="20.6409" operator="dilate" in="SourceAlpha" result="effect2_innerShadow_5640_7646"/>
<feOffset dx="-12.3845" dy="-24.7691"/>
<feGaussianBlur stdDeviation="2.75212"/>
<feComposite in2="hardAlpha" operator="arithmetic" k2="-1" k3="1"/>
<feColorMatrix type="matrix" values="0 0 0 0 0.580041 0 0 0 0 0.433969 0 0 0 0 0.395303 0 0 0 1 0"/>
<feBlend mode="normal" in2="effect1_innerShadow_5640_7646" result="effect2_innerShadow_5640_7646"/>
</filter>
<filter id="filter2_ii_5640_7646" x="94.8208" y="164.283" width="41.2891" height="41.2891" filterUnits="userSpaceOnUse" color-interpolation-filters="sRGB">
<feFlood flood-opacity="0" result="BackgroundImageFix"/>
<feBlend mode="normal" in="SourceGraphic" in2="BackgroundImageFix" result="shape"/>
<feColorMatrix in="SourceAlpha" type="matrix" values="0 0 0 0 0 0 0 0 0 0 0 0 0 0 0 0 0 0 127 0" result="hardAlpha"/>
<feMorphology radius="19.2648" operator="dilate" in="SourceAlpha" result="effect1_innerShadow_5640_7646"/>
<feOffset dx="-26.1451" dy="-24.7691"/>
<feGaussianBlur stdDeviation="5.91706"/>
<feComposite in2="hardAlpha" operator="arithmetic" k2="-1" k3="1"/>
<feColorMatrix type="matrix" values="0 0 0 0 0.816857 0 0 0 0 0.71106 0 0 0 0 0.605264 0 0 0 1 0"/>
<feBlend mode="normal" in2="shape" result="effect1_innerShadow_5640_7646"/>
<feColorMatrix in="SourceAlpha" type="matrix" values="0 0 0 0 0 0 0 0 0 0 0 0 0 0 0 0 0 0 127 0" result="hardAlpha"/>
<feMorphology radius="20.6409" operator="dilate" in="SourceAlpha" result="effect2_innerShadow_5640_7646"/>
<feOffset dx="-12.3845" dy="-24.7691"/>
<feGaussianBlur stdDeviation="2.75212"/>
<feComposite in2="hardAlpha" operator="arithmetic" k2="-1" k3="1"/>
<feColorMatrix type="matrix" values="0 0 0 0 0.724929 0 0 0 0 0.598786 0 0 0 0 0.472644 0 0 0 1 0"/>
<feBlend mode="normal" in2="effect1_innerShadow_5640_7646" result="effect2_innerShadow_5640_7646"/>
</filter>
<filter id="filter3_ii_5640_7646" x="50.8188" y="139.088" width="41.2817" height="41.2822" filterUnits="userSpaceOnUse" color-interpolation-filters="sRGB">
<feFlood flood-opacity="0" result="BackgroundImageFix"/>
<feBlend mode="normal" in="SourceGraphic" in2="BackgroundImageFix" result="shape"/>
<feColorMatrix in="SourceAlpha" type="matrix" values="0 0 0 0 0 0 0 0 0 0 0 0 0 0 0 0 0 0 127 0" result="hardAlpha"/>
<feMorphology radius="19.2648" operator="dilate" in="SourceAlpha" result="effect1_innerShadow_5640_7646"/>
<feOffset dx="-26.1451" dy="-24.7691"/>
<feGaussianBlur stdDeviation="5.91706"/>
<feComposite in2="hardAlpha" operator="arithmetic" k2="-1" k3="1"/>
<feColorMatrix type="matrix" values="0 0 0 0 0.479342 0 0 0 0 0.265916 0 0 0 0 0.227608 0 0 0 1 0"/>
<feBlend mode="normal" in2="shape" result="effect1_innerShadow_5640_7646"/>
<feColorMatrix in="SourceAlpha" type="matrix" values="0 0 0 0 0 0 0 0 0 0 0 0 0 0 0 0 0 0 127 0" result="hardAlpha"/>
<feMorphology radius="20.6409" operator="dilate" in="SourceAlpha" result="effect2_innerShadow_5640_7646"/>
<feOffset dx="-12.3845" dy="-24.7691"/>
<feGaussianBlur stdDeviation="2.75212"/>
<feComposite in2="hardAlpha" operator="arithmetic" k2="-1" k3="1"/>
<feColorMatrix type="matrix" values="0 0 0 0 0.407734 0 0 0 0 0.246472 0 0 0 0 0.217527 0 0 0 1 0"/>
<feBlend mode="normal" in2="effect1_innerShadow_5640_7646" result="effect2_innerShadow_5640_7646"/>
</filter>
<filter id="filter4_ii_5640_7646" x="204.199" y="152.664" width="33.4565" height="33.4561" filterUnits="userSpaceOnUse" color-interpolation-filters="sRGB">
<feFlood flood-opacity="0" result="BackgroundImageFix"/>
<feBlend mode="normal" in="SourceGraphic" in2="BackgroundImageFix" result="shape"/>
<feColorMatrix in="SourceAlpha" type="matrix" values="0 0 0 0 0 0 0 0 0 0 0 0 0 0 0 0 0 0 127 0" result="hardAlpha"/>
<feMorphology radius="19.2648" operator="dilate" in="SourceAlpha" result="effect1_innerShadow_5640_7646"/>
<feOffset dx="-26.1451" dy="-24.7691"/>
<feGaussianBlur stdDeviation="5.91706"/>
<feComposite in2="hardAlpha" operator="arithmetic" k2="-1" k3="1"/>
<feColorMatrix type="matrix" values="0 0 0 0 0.479342 0 0 0 0 0.265916 0 0 0 0 0.227608 0 0 0 1 0"/>
<feBlend mode="normal" in2="shape" result="effect1_innerShadow_5640_7646"/>
<feColorMatrix in="SourceAlpha" type="matrix" values="0 0 0 0 0 0 0 0 0 0 0 0 0 0 0 0 0 0 127 0" result="hardAlpha"/>
<feMorphology radius="20.6409" operator="dilate" in="SourceAlpha" result="effect2_innerShadow_5640_7646"/>
<feOffset dx="-12.3845" dy="-24.7691"/>
<feGaussianBlur stdDeviation="2.75212"/>
<feComposite in2="hardAlpha" operator="arithmetic" k2="-1" k3="1"/>
<feColorMatrix type="matrix" values="0 0 0 0 0.407734 0 0 0 0 0.246472 0 0 0 0 0.217527 0 0 0 1 0"/>
<feBlend mode="normal" in2="effect1_innerShadow_5640_7646" result="effect2_innerShadow_5640_7646"/>
</filter>
<filter id="filter5_ii_5640_7646" x="74.46" y="150.292" width="41.2822" height="41.2822" filterUnits="userSpaceOnUse" color-interpolation-filters="sRGB">
<feFlood flood-opacity="0" result="BackgroundImageFix"/>
<feBlend mode="normal" in="SourceGraphic" in2="BackgroundImageFix" result="shape"/>
<feColorMatrix in="SourceAlpha" type="matrix" values="0 0 0 0 0 0 0 0 0 0 0 0 0 0 0 0 0 0 127 0" result="hardAlpha"/>
<feMorphology radius="19.2648" operator="dilate" in="SourceAlpha" result="effect1_innerShadow_5640_7646"/>
<feOffset dx="-26.1451" dy="-24.7691"/>
<feGaussianBlur stdDeviation="5.91706"/>
<feComposite in2="hardAlpha" operator="arithmetic" k2="-1" k3="1"/>
<feColorMatrix type="matrix" values="0 0 0 0 0.76632 0 0 0 0 0.737656 0 0 0 0 0.670775 0 0 0 1 0"/>
<feBlend mode="normal" in2="shape" result="effect1_innerShadow_5640_7646"/>
<feColorMatrix in="SourceAlpha" type="matrix" values="0 0 0 0 0 0 0 0 0 0 0 0 0 0 0 0 0 0 127 0" result="hardAlpha"/>
<feMorphology radius="20.6409" operator="dilate" in="SourceAlpha" result="effect2_innerShadow_5640_7646"/>
<feOffset dx="-12.3845" dy="-24.7691"/>
<feGaussianBlur stdDeviation="2.75212"/>
<feComposite in2="hardAlpha" operator="arithmetic" k2="-1" k3="1"/>
<feColorMatrix type="matrix" values="0 0 0 0 0.608793 0 0 0 0 0.55757 0 0 0 0 0.43805 0 0 0 1 0"/>
<feBlend mode="normal" in2="effect1_innerShadow_5640_7646" result="effect2_innerShadow_5640_7646"/>
</filter>
<filter id="filter6_ii_5640_7646" x="153.078" y="153.08" width="41.2891" height="41.2891" filterUnits="userSpaceOnUse" color-interpolation-filters="sRGB">
<feFlood flood-opacity="0" result="BackgroundImageFix"/>
<feBlend mode="normal" in="SourceGraphic" in2="BackgroundImageFix" result="shape"/>
<feColorMatrix in="SourceAlpha" type="matrix" values="0 0 0 0 0 0 0 0 0 0 0 0 0 0 0 0 0 0 127 0" result="hardAlpha"/>
<feMorphology radius="19.2648" operator="dilate" in="SourceAlpha" result="effect1_innerShadow_5640_7646"/>
<feOffset dx="-26.1451" dy="-24.7691"/>
<feGaussianBlur stdDeviation="5.91706"/>
<feComposite in2="hardAlpha" operator="arithmetic" k2="-1" k3="1"/>
<feColorMatrix type="matrix" values="0 0 0 0 0.816857 0 0 0 0 0.71106 0 0 0 0 0.605264 0 0 0 1 0"/>
<feBlend mode="normal" in2="shape" result="effect1_innerShadow_5640_7646"/>
<feColorMatrix in="SourceAlpha" type="matrix" values="0 0 0 0 0 0 0 0 0 0 0 0 0 0 0 0 0 0 127 0" result="hardAlpha"/>
<feMorphology radius="20.6409" operator="dilate" in="SourceAlpha" result="effect2_innerShadow_5640_7646"/>
<feOffset dx="-12.3845" dy="-24.7691"/>
<feGaussianBlur stdDeviation="2.75212"/>
<feComposite in2="hardAlpha" operator="arithmetic" k2="-1" k3="1"/>
<feColorMatrix type="matrix" values="0 0 0 0 0.724929 0 0 0 0 0.598786 0 0 0 0 0.472644 0 0 0 1 0"/>
<feBlend mode="normal" in2="effect1_innerShadow_5640_7646" result="effect2_innerShadow_5640_7646"/>
</filter>
<filter id="filter7_ii_5640_7646" x="179.387" y="145.778" width="33.2329" height="33.2324" filterUnits="userSpaceOnUse" color-interpolation-filters="sRGB">
<feFlood flood-opacity="0" result="BackgroundImageFix"/>
<feBlend mode="normal" in="SourceGraphic" in2="BackgroundImageFix" result="shape"/>
<feColorMatrix in="SourceAlpha" type="matrix" values="0 0 0 0 0 0 0 0 0 0 0 0 0 0 0 0 0 0 127 0" result="hardAlpha"/>
<feMorphology radius="15.5085" operator="dilate" in="SourceAlpha" result="effect1_innerShadow_5640_7646"/>
<feOffset dx="-21.0472" dy="-19.9395"/>
<feGaussianBlur stdDeviation="4.76332"/>
<feComposite in2="hardAlpha" operator="arithmetic" k2="-1" k3="1"/>
<feColorMatrix type="matrix" values="0 0 0 0 0.623629 0 0 0 0 0.370297 0 0 0 0 0.281832 0 0 0 1 0"/>
<feBlend mode="normal" in2="shape" result="effect1_innerShadow_5640_7646"/>
<feColorMatrix in="SourceAlpha" type="matrix" values="0 0 0 0 0 0 0 0 0 0 0 0 0 0 0 0 0 0 127 0" result="hardAlpha"/>
<feMorphology radius="16.6162" operator="dilate" in="SourceAlpha" result="effect2_innerShadow_5640_7646"/>
<feOffset dx="-9.96973" dy="-19.9395"/>
<feGaussianBlur stdDeviation="2.2155"/>
<feComposite in2="hardAlpha" operator="arithmetic" k2="-1" k3="1"/>
<feColorMatrix type="matrix" values="0 0 0 0 0.49523 0 0 0 0 0.334686 0 0 0 0 0.278623 0 0 0 1 0"/>
<feBlend mode="normal" in2="effect1_innerShadow_5640_7646" result="effect2_innerShadow_5640_7646"/>
</filter>
<filter id="filter8_ii_5640_7646" x="170.537" y="173.489" width="41.2817" height="41.2822" filterUnits="userSpaceOnUse" color-interpolation-filters="sRGB">
<feFlood flood-opacity="0" result="BackgroundImageFix"/>
<feBlend mode="normal" in="SourceGraphic" in2="BackgroundImageFix" result="shape"/>
<feColorMatrix in="SourceAlpha" type="matrix" values="0 0 0 0 0 0 0 0 0 0 0 0 0 0 0 0 0 0 127 0" result="hardAlpha"/>
<feMorphology radius="19.2648" operator="dilate" in="SourceAlpha" result="effect1_innerShadow_5640_7646"/>
<feOffset dx="-26.1451" dy="-24.7691"/>
<feGaussianBlur stdDeviation="5.91706"/>
<feComposite in2="hardAlpha" operator="arithmetic" k2="-1" k3="1"/>
<feColorMatrix type="matrix" values="0 0 0 0 0.479342 0 0 0 0 0.265916 0 0 0 0 0.227608 0 0 0 1 0"/>
<feBlend mode="normal" in2="shape" result="effect1_innerShadow_5640_7646"/>
<feColorMatrix in="SourceAlpha" type="matrix" values="0 0 0 0 0 0 0 0 0 0 0 0 0 0 0 0 0 0 127 0" result="hardAlpha"/>
<feMorphology radius="20.6409" operator="dilate" in="SourceAlpha" result="effect2_innerShadow_5640_7646"/>
<feOffset dx="-12.3845" dy="-24.7691"/>
<feGaussianBlur stdDeviation="2.75212"/>
<feComposite in2="hardAlpha" operator="arithmetic" k2="-1" k3="1"/>
<feColorMatrix type="matrix" values="0 0 0 0 0.407734 0 0 0 0 0.246472 0 0 0 0 0.217527 0 0 0 1 0"/>
<feBlend mode="normal" in2="effect1_innerShadow_5640_7646" result="effect2_innerShadow_5640_7646"/>
</filter>
<filter id="filter9_ii_5640_7646" x="14.0615" y="179.386" width="32.0391" height="32.0391" filterUnits="userSpaceOnUse" color-interpolation-filters="sRGB">
<feFlood flood-opacity="0" result="BackgroundImageFix"/>
<feBlend mode="normal" in="SourceGraphic" in2="BackgroundImageFix" result="shape"/>
<feColorMatrix in="SourceAlpha" type="matrix" values="0 0 0 0 0 0 0 0 0 0 0 0 0 0 0 0 0 0 127 0" result="hardAlpha"/>
<feMorphology radius="14.9502" operator="dilate" in="SourceAlpha" result="effect1_innerShadow_5640_7646"/>
<feOffset dx="-20.2895" dy="-19.2216"/>
<feGaussianBlur stdDeviation="4.59183"/>
<feComposite in2="hardAlpha" operator="arithmetic" k2="-1" k3="1"/>
<feColorMatrix type="matrix" values="0 0 0 0 0.479342 0 0 0 0 0.265916 0 0 0 0 0.227608 0 0 0 1 0"/>
<feBlend mode="normal" in2="shape" result="effect1_innerShadow_5640_7646"/>
<feColorMatrix in="SourceAlpha" type="matrix" values="0 0 0 0 0 0 0 0 0 0 0 0 0 0 0 0 0 0 127 0" result="hardAlpha"/>
<feMorphology radius="16.018" operator="dilate" in="SourceAlpha" result="effect2_innerShadow_5640_7646"/>
<feOffset dx="-9.61081" dy="-19.2216"/>
<feGaussianBlur stdDeviation="2.13574"/>
<feComposite in2="hardAlpha" operator="arithmetic" k2="-1" k3="1"/>
<feColorMatrix type="matrix" values="0 0 0 0 0.407734 0 0 0 0 0.246472 0 0 0 0 0.217527 0 0 0 1 0"/>
<feBlend mode="normal" in2="effect1_innerShadow_5640_7646" result="effect2_innerShadow_5640_7646"/>
</filter>
<filter id="filter10_ii_5640_7646" x="107.049" y="189.955" width="41.2822" height="41.2822" filterUnits="userSpaceOnUse" color-interpolation-filters="sRGB">
<feFlood flood-opacity="0" result="BackgroundImageFix"/>
<feBlend mode="normal" in="SourceGraphic" in2="BackgroundImageFix" result="shape"/>
<feColorMatrix in="SourceAlpha" type="matrix" values="0 0 0 0 0 0 0 0 0 0 0 0 0 0 0 0 0 0 127 0" result="hardAlpha"/>
<feMorphology radius="19.2648" operator="dilate" in="SourceAlpha" result="effect1_innerShadow_5640_7646"/>
<feOffset dx="-26.1451" dy="-24.7691"/>
<feGaussianBlur stdDeviation="5.91706"/>
<feComposite in2="hardAlpha" operator="arithmetic" k2="-1" k3="1"/>
<feColorMatrix type="matrix" values="0 0 0 0 0.76632 0 0 0 0 0.737656 0 0 0 0 0.670775 0 0 0 1 0"/>
<feBlend mode="normal" in2="shape" result="effect1_innerShadow_5640_7646"/>
<feColorMatrix in="SourceAlpha" type="matrix" values="0 0 0 0 0 0 0 0 0 0 0 0 0 0 0 0 0 0 127 0" result="hardAlpha"/>
<feMorphology radius="20.6409" operator="dilate" in="SourceAlpha" result="effect2_innerShadow_5640_7646"/>
<feOffset dx="-12.3845" dy="-24.7691"/>
<feGaussianBlur stdDeviation="2.75212"/>
<feComposite in2="hardAlpha" operator="arithmetic" k2="-1" k3="1"/>
<feColorMatrix type="matrix" values="0 0 0 0 0.608793 0 0 0 0 0.55757 0 0 0 0 0.43805 0 0 0 1 0"/>
<feBlend mode="normal" in2="effect1_innerShadow_5640_7646" result="effect2_innerShadow_5640_7646"/>
</filter>
<filter id="filter11_ii_5640_7646" x="138.282" y="187.577" width="41.2837" height="41.2842" filterUnits="userSpaceOnUse" color-interpolation-filters="sRGB">
<feFlood flood-opacity="0" result="BackgroundImageFix"/>
<feBlend mode="normal" in="SourceGraphic" in2="BackgroundImageFix" result="shape"/>
<feColorMatrix in="SourceAlpha" type="matrix" values="0 0 0 0 0 0 0 0 0 0 0 0 0 0 0 0 0 0 127 0" result="hardAlpha"/>
<feMorphology radius="19.2648" operator="dilate" in="SourceAlpha" result="effect1_innerShadow_5640_7646"/>
<feOffset dx="-26.1451" dy="-24.7691"/>
<feGaussianBlur stdDeviation="5.91706"/>
<feComposite in2="hardAlpha" operator="arithmetic" k2="-1" k3="1"/>
<feColorMatrix type="matrix" values="0 0 0 0 0.681922 0 0 0 0 0.541038 0 0 0 0 0.503745 0 0 0 1 0"/>
<feBlend mode="normal" in2="shape" result="effect1_innerShadow_5640_7646"/>
<feColorMatrix in="SourceAlpha" type="matrix" values="0 0 0 0 0 0 0 0 0 0 0 0 0 0 0 0 0 0 127 0" result="hardAlpha"/>
<feMorphology radius="20.6409" operator="dilate" in="SourceAlpha" result="effect2_innerShadow_5640_7646"/>
<feOffset dx="-12.3845" dy="-24.7691"/>
<feGaussianBlur stdDeviation="2.75212"/>
<feComposite in2="hardAlpha" operator="arithmetic" k2="-1" k3="1"/>
<feColorMatrix type="matrix" values="0 0 0 0 0.580041 0 0 0 0 0.433969 0 0 0 0 0.395303 0 0 0 1 0"/>
<feBlend mode="normal" in2="effect1_innerShadow_5640_7646" result="effect2_innerShadow_5640_7646"/>
</filter>
<filter id="filter12_ii_5640_7646" x="42.0024" y="168.15" width="41.2891" height="41.2891" filterUnits="userSpaceOnUse" color-interpolation-filters="sRGB">
<feFlood flood-opacity="0" result="BackgroundImageFix"/>
<feBlend mode="normal" in="SourceGraphic" in2="BackgroundImageFix" result="shape"/>
<feColorMatrix in="SourceAlpha" type="matrix" values="0 0 0 0 0 0 0 0 0 0 0 0 0 0 0 0 0 0 127 0" result="hardAlpha"/>
<feMorphology radius="19.2648" operator="dilate" in="SourceAlpha" result="effect1_innerShadow_5640_7646"/>
<feOffset dx="-26.1451" dy="-24.7691"/>
<feGaussianBlur stdDeviation="5.91706"/>
<feComposite in2="hardAlpha" operator="arithmetic" k2="-1" k3="1"/>
<feColorMatrix type="matrix" values="0 0 0 0 0.816857 0 0 0 0 0.71106 0 0 0 0 0.605264 0 0 0 1 0"/>
<feBlend mode="normal" in2="shape" result="effect1_innerShadow_5640_7646"/>
<feColorMatrix in="SourceAlpha" type="matrix" values="0 0 0 0 0 0 0 0 0 0 0 0 0 0 0 0 0 0 127 0" result="hardAlpha"/>
<feMorphology radius="20.6409" operator="dilate" in="SourceAlpha" result="effect2_innerShadow_5640_7646"/>
<feOffset dx="-12.3845" dy="-24.7691"/>
<feGaussianBlur stdDeviation="2.75212"/>
<feComposite in2="hardAlpha" operator="arithmetic" k2="-1" k3="1"/>
<feColorMatrix type="matrix" values="0 0 0 0 0.724929 0 0 0 0 0.598786 0 0 0 0 0.472644 0 0 0 1 0"/>
<feBlend mode="normal" in2="effect1_innerShadow_5640_7646" result="effect2_innerShadow_5640_7646"/>
</filter>
<filter id="filter13_ii_5640_7646" x="73.4961" y="178.808" width="41.2822" height="41.2822" filterUnits="userSpaceOnUse" color-interpolation-filters="sRGB">
<feFlood flood-opacity="0" result="BackgroundImageFix"/>
<feBlend mode="normal" in="SourceGraphic" in2="BackgroundImageFix" result="shape"/>
<feColorMatrix in="SourceAlpha" type="matrix" values="0 0 0 0 0 0 0 0 0 0 0 0 0 0 0 0 0 0 127 0" result="hardAlpha"/>
<feMorphology radius="19.2648" operator="dilate" in="SourceAlpha" result="effect1_innerShadow_5640_7646"/>
<feOffset dx="-26.1451" dy="-24.7691"/>
<feGaussianBlur stdDeviation="5.91706"/>
<feComposite in2="hardAlpha" operator="arithmetic" k2="-1" k3="1"/>
<feColorMatrix type="matrix" values="0 0 0 0 0.623629 0 0 0 0 0.370297 0 0 0 0 0.281832 0 0 0 1 0"/>
<feBlend mode="normal" in2="shape" result="effect1_innerShadow_5640_7646"/>
<feColorMatrix in="SourceAlpha" type="matrix" values="0 0 0 0 0 0 0 0 0 0 0 0 0 0 0 0 0 0 127 0" result="hardAlpha"/>
<feMorphology radius="20.6409" operator="dilate" in="SourceAlpha" result="effect2_innerShadow_5640_7646"/>
<feOffset dx="-12.3845" dy="-24.7691"/>
<feGaussianBlur stdDeviation="2.75212"/>
<feComposite in2="hardAlpha" operator="arithmetic" k2="-1" k3="1"/>
<feColorMatrix type="matrix" values="0 0 0 0 0.49523 0 0 0 0 0.334686 0 0 0 0 0.278623 0 0 0 1 0"/>
<feBlend mode="normal" in2="effect1_innerShadow_5640_7646" result="effect2_innerShadow_5640_7646"/>
</filter>
<filter id="filter14_ii_5640_7646" x="-9.46582" y="173.103" width="41.2822" height="41.2822" filterUnits="userSpaceOnUse" color-interpolation-filters="sRGB">
<feFlood flood-opacity="0" result="BackgroundImageFix"/>
<feBlend mode="normal" in="SourceGraphic" in2="BackgroundImageFix" result="shape"/>
<feColorMatrix in="SourceAlpha" type="matrix" values="0 0 0 0 0 0 0 0 0 0 0 0 0 0 0 0 0 0 127 0" result="hardAlpha"/>
<feMorphology radius="19.2648" operator="dilate" in="SourceAlpha" result="effect1_innerShadow_5640_7646"/>
<feOffset dx="-26.1451" dy="-24.7691"/>
<feGaussianBlur stdDeviation="5.91706"/>
<feComposite in2="hardAlpha" operator="arithmetic" k2="-1" k3="1"/>
<feColorMatrix type="matrix" values="0 0 0 0 0.76632 0 0 0 0 0.737656 0 0 0 0 0.670775 0 0 0 1 0"/>
<feBlend mode="normal" in2="shape" result="effect1_innerShadow_5640_7646"/>
<feColorMatrix in="SourceAlpha" type="matrix" values="0 0 0 0 0 0 0 0 0 0 0 0 0 0 0 0 0 0 127 0" result="hardAlpha"/>
<feMorphology radius="20.6409" operator="dilate" in="SourceAlpha" result="effect2_innerShadow_5640_7646"/>
<feOffset dx="-12.3845" dy="-24.7691"/>
<feGaussianBlur stdDeviation="2.75212"/>
<feComposite in2="hardAlpha" operator="arithmetic" k2="-1" k3="1"/>
<feColorMatrix type="matrix" values="0 0 0 0 0.608793 0 0 0 0 0.55757 0 0 0 0 0.43805 0 0 0 1 0"/>
<feBlend mode="normal" in2="effect1_innerShadow_5640_7646" result="effect2_innerShadow_5640_7646"/>
</filter>
<filter id="filter15_ii_5640_7646" x="16.9209" y="154.077" width="41.293" height="41.293" filterUnits="userSpaceOnUse" color-interpolation-filters="sRGB">
<feFlood flood-opacity="0" result="BackgroundImageFix"/>
<feBlend mode="normal" in="SourceGraphic" in2="BackgroundImageFix" result="shape"/>
<feColorMatrix in="SourceAlpha" type="matrix" values="0 0 0 0 0 0 0 0 0 0 0 0 0 0 0 0 0 0 127 0" result="hardAlpha"/>
<feMorphology radius="19.2648" operator="dilate" in="SourceAlpha" result="effect1_innerShadow_5640_7646"/>
<feOffset dx="-26.1451" dy="-24.7691"/>
<feGaussianBlur stdDeviation="5.91706"/>
<feComposite in2="hardAlpha" operator="arithmetic" k2="-1" k3="1"/>
<feColorMatrix type="matrix" values="0 0 0 0 0.681922 0 0 0 0 0.541038 0 0 0 0 0.503745 0 0 0 1 0"/>
<feBlend mode="normal" in2="shape" result="effect1_innerShadow_5640_7646"/>
<feColorMatrix in="SourceAlpha" type="matrix" values="0 0 0 0 0 0 0 0 0 0 0 0 0 0 0 0 0 0 127 0" result="hardAlpha"/>
<feMorphology radius="20.6409" operator="dilate" in="SourceAlpha" result="effect2_innerShadow_5640_7646"/>
<feOffset dx="-12.3845" dy="-24.7691"/>
<feGaussianBlur stdDeviation="2.75212"/>
<feComposite in2="hardAlpha" operator="arithmetic" k2="-1" k3="1"/>
<feColorMatrix type="matrix" values="0 0 0 0 0.580041 0 0 0 0 0.433969 0 0 0 0 0.395303 0 0 0 1 0"/>
<feBlend mode="normal" in2="effect1_innerShadow_5640_7646" result="effect2_innerShadow_5640_7646"/>
</filter>
<filter id="filter16_ii_5640_7646" x="16.9209" y="154.077" width="41.293" height="41.293" filterUnits="userSpaceOnUse" color-interpolation-filters="sRGB">
<feFlood flood-opacity="0" result="BackgroundImageFix"/>
<feBlend mode="normal" in="SourceGraphic" in2="BackgroundImageFix" result="shape"/>
<feColorMatrix in="SourceAlpha" type="matrix" values="0 0 0 0 0 0 0 0 0 0 0 0 0 0 0 0 0 0 127 0" result="hardAlpha"/>
<feMorphology radius="19.2648" operator="dilate" in="SourceAlpha" result="effect1_innerShadow_5640_7646"/>
<feOffset dx="-26.1451" dy="-24.7691"/>
<feGaussianBlur stdDeviation="5.91706"/>
<feComposite in2="hardAlpha" operator="arithmetic" k2="-1" k3="1"/>
<feColorMatrix type="matrix" values="0 0 0 0 0.681922 0 0 0 0 0.541038 0 0 0 0 0.503745 0 0 0 1 0"/>
<feBlend mode="normal" in2="shape" result="effect1_innerShadow_5640_7646"/>
<feColorMatrix in="SourceAlpha" type="matrix" values="0 0 0 0 0 0 0 0 0 0 0 0 0 0 0 0 0 0 127 0" result="hardAlpha"/>
<feMorphology radius="20.6409" operator="dilate" in="SourceAlpha" result="effect2_innerShadow_5640_7646"/>
<feOffset dx="-12.3845" dy="-24.7691"/>
<feGaussianBlur stdDeviation="2.75212"/>
<feComposite in2="hardAlpha" operator="arithmetic" k2="-1" k3="1"/>
<feColorMatrix type="matrix" values="0 0 0 0 0.580041 0 0 0 0 0.433969 0 0 0 0 0.395303 0 0 0 1 0"/>
<feBlend mode="normal" in2="effect1_innerShadow_5640_7646" result="effect2_innerShadow_5640_7646"/>
</filter>
<filter id="filter17_d_5640_7646" x="124.105" y="246.275" width="24.4293" height="81.4225" filterUnits="userSpaceOnUse" color-interpolation-filters="sRGB">
<feFlood flood-opacity="0" result="BackgroundImageFix"/>
<feColorMatrix in="SourceAlpha" type="matrix" values="0 0 0 0 0 0 0 0 0 0 0 0 0 0 0 0 0 0 127 0" result="hardAlpha"/>
<feOffset dx="3" dy="4"/>
<feGaussianBlur stdDeviation="2.1"/>
<feComposite in2="hardAlpha" operator="out"/>
<feColorMatrix type="matrix" values="0 0 0 0 0 0 0 0 0 0 0 0 0 0 0 0 0 0 0.25 0"/>
<feBlend mode="normal" in2="BackgroundImageFix" result="effect1_dropShadow_5640_7646"/>
<feBlend mode="normal" in="SourceGraphic" in2="effect1_dropShadow_5640_7646" result="shape"/>
</filter>
<filter id="filter18_i_5640_7646" x="130.648" y="259.723" width="8.34326" height="45.5264" filterUnits="userSpaceOnUse" color-interpolation-filters="sRGB">
<feFlood flood-opacity="0" result="BackgroundImageFix"/>
<feBlend mode="normal" in="SourceGraphic" in2="BackgroundImageFix" result="shape"/>
<feColorMatrix in="SourceAlpha" type="matrix" values="0 0 0 0 0 0 0 0 0 0 0 0 0 0 0 0 0 0 127 0" result="hardAlpha"/>
<feOffset dx="3" dy="-1"/>
<feGaussianBlur stdDeviation="2.4"/>
<feComposite in2="hardAlpha" operator="arithmetic" k2="-1" k3="1"/>
<feColorMatrix type="matrix" values="0 0 0 0 0 0 0 0 0 0 0 0 0 0 0 0 0 0 0.15 0"/>
<feBlend mode="normal" in2="shape" result="effect1_innerShadow_5640_7646"/>
</filter>
<linearGradient id="paint0_linear_5640_7646" x1="134.44" y1="224.067" x2="134.44" y2="230.789" gradientUnits="userSpaceOnUse">
<stop offset="0.458712" stop-color="#909E7D"/>
<stop offset="1" stop-color="#4B5142"/>
</linearGradient>
<radialGradient id="paint1_radial_5640_7646" cx="0" cy="0" r="1" gradientUnits="userSpaceOnUse" gradientTransform="translate(135 285.832) rotate(90) scale(36)">
<stop offset="0.798077" stop-color="#707963"/>
<stop offset="1" stop-color="#AFC1B1"/>
</radialGradient>
<linearGradient id="paint2_linear_5640_7646" x1="85.1454" y1="361.868" x2="80.6641" y2="361.868" gradientUnits="userSpaceOnUse">
<stop offset="0.0775831" stop-color="#7D2811"/>
<stop offset="1" stop-color="#9F3417"/>
</linearGradient>
<linearGradient id="paint3_linear_5640_7646" x1="34.2869" y1="308.557" x2="29.8088" y2="308.387" gradientUnits="userSpaceOnUse">
<stop offset="0.0775831" stop-color="#7D2811"/>
<stop offset="1" stop-color="#9F3417"/>
</linearGradient>
<linearGradient id="paint4_linear_5640_7646" x1="241.254" y1="316.553" x2="246.046" y2="316.294" gradientUnits="userSpaceOnUse">
<stop offset="0.0775831" stop-color="#7D2811"/>
<stop offset="1" stop-color="#9F3417"/>
</linearGradient>
<linearGradient id="paint5_linear_5640_7646" x1="183.734" y1="363.538" x2="188.216" y2="363.538" gradientUnits="userSpaceOnUse">
<stop offset="0.0775831" stop-color="#7D2811"/>
<stop offset="1" stop-color="#9F3417"/>
</linearGradient>
<clipPath id="clip0_5640_7646">
<rect x="24.6475" y="8.96387" width="217.344" height="217.344" rx="108.672" fill="white"/>
</clipPath>
</defs>
</svg>
