<svg width="409" height="693" viewBox="0 0 409 693" fill="none" xmlns="http://www.w3.org/2000/svg">
<circle cx="284.546" cy="598.546" r="72.7683" transform="rotate(-14.5016 284.546 598.546)" stroke="#D4B2A9" stroke-width="8"/>
<circle cx="267.755" cy="588.659" r="7.87367" transform="rotate(-14.5016 267.755 588.659)" fill="#1F1E1F"/>
<circle cx="294.435" cy="581.757" r="7.87367" transform="rotate(-14.5016 294.435 581.757)" fill="#1F1E1F"/>
<path d="M257.931 613.561L315.102 598.773" stroke="#1F1E1F" stroke-width="3.13657" stroke-linecap="round"/>
<path d="M0 317.575C21.8927 304.849 47.7742 298.483 74.9219 300.78L76.5674 300.931C146.076 307.701 197.416 369.132 191.51 438.925L191.36 440.57C184.59 510.079 123.158 561.418 53.3662 555.513L51.7207 555.362C32.8874 553.528 15.3883 547.68 0 538.741V527.001C15.7498 537.24 34.1808 543.853 54.209 545.548C119.048 551.035 176.059 502.92 181.546 438.081C187.033 373.242 138.917 316.232 74.0781 310.745C46.9474 308.449 21.1882 315.539 0 329.312V317.575Z" fill="#EDEAE3"/>
<path d="M119.788 436.143C123.173 436.43 125.734 439.43 124.875 442.716C123.868 446.567 122.219 450.286 119.961 453.78C116.537 459.077 111.781 463.751 105.963 467.535C100.145 471.319 93.3799 474.138 86.0534 475.832C78.7269 477.526 70.9828 478.062 63.2631 477.409C55.5434 476.756 47.9994 474.926 41.0618 472.025C34.1242 469.124 27.9289 465.207 22.8295 460.5C17.7302 455.792 13.8267 450.386 11.3419 444.589C9.70307 440.765 8.70255 436.821 8.35703 432.856C8.06213 429.472 11.0917 426.945 14.4764 427.232L67.1321 431.688L119.788 436.143Z" fill="#1F1E1F"/>
<circle cx="49.7483" cy="403.907" r="13.1099" transform="rotate(4.83693 49.7483 403.907)" fill="#1F1E1F"/>
<circle cx="88.9397" cy="407.223" r="13.1099" transform="rotate(4.83693 88.9397 407.223)" fill="#1F1E1F"/>
<path d="M76.7686 0C58.4033 58.6436 59.197 123.715 83.4443 185.354C133.837 313.455 268.48 383.392 398.86 356.631V371.93C262.41 398.454 122.202 324.851 69.4863 190.844C44.5504 127.455 43.1532 60.6213 61.0889 0H76.7686Z" fill="#E7D7C7"/>
<circle cx="321.099" cy="39.1003" r="30.1538" transform="rotate(-21.4737 321.099 39.1003)" fill="#1F1E1F"/>
<path d="M282.493 89.5938C310.441 109.162 359.622 128.017 402 107.056" stroke="#1F1E1F" stroke-width="13.5462" stroke-linecap="round"/>
</svg>
