<svg width="396" height="709" viewBox="0 0 396 709" fill="none" xmlns="http://www.w3.org/2000/svg">
<mask id="mask0_5627_6452" style="mask-type:alpha" maskUnits="userSpaceOnUse" x="0" y="0" width="396" height="709">
<rect width="396" height="709" fill="#D9D9D9"/>
</mask>
<g mask="url(#mask0_5627_6452)">
<rect x="-5.04639" y="1" width="375" height="143.572" rx="8" transform="rotate(7.98878 -5.04639 1)" fill="white"/>
<g clip-path="url(#clip0_5627_6452)">
<g clip-path="url(#clip1_5627_6452)">
<circle cx="42.6605" cy="53.2095" r="22.5" transform="rotate(7.98878 42.6605 53.2095)" fill="#EDEAE3"/>
<path d="M52.2429 55.1375C52.9017 55.23 53.3713 55.8453 53.1558 56.4748C52.9418 57.0998 52.6292 57.6982 52.2235 58.256C51.5705 59.1539 50.6892 59.9293 49.6301 60.5381C48.5709 61.1468 47.3545 61.5768 46.0504 61.8037C44.7463 62.0306 43.38 62.0498 42.0295 61.8602C40.679 61.6707 39.3708 61.2762 38.1795 60.6991C36.9882 60.122 35.9372 59.3737 35.0865 58.497C34.2358 57.6202 33.6021 56.6322 33.2214 55.5892C32.985 54.9413 32.8491 54.28 32.8154 53.6202C32.7815 52.9557 33.4023 52.4934 34.0612 52.5859L43.152 53.8617L52.2429 55.1375Z" fill="#1F1E1F"/>
<circle cx="40.3655" cy="48.8101" r="2.30769" transform="rotate(7.98878 40.3655 48.8101)" fill="#1F1E1F"/>
<circle cx="47.2214" cy="49.772" r="2.30769" transform="rotate(7.98878 47.2214 49.772)" fill="#1F1E1F"/>
<path d="M29.4059 88.8209L29.1524 90.6272C29.1402 90.7143 29.1205 90.7681 29.0934 90.7885C29.0652 90.8169 29.0075 90.8249 28.9204 90.8127L28.0648 90.6926C27.9776 90.6804 27.9204 90.6562 27.8932 90.6201C27.8739 90.5851 27.8698 90.5279 27.8809 90.4487L28.1344 88.6424L24.3316 88.1087C24.2524 88.0976 24.202 88.0825 24.1805 88.0633C24.1589 88.0441 24.1526 88.0028 24.1615 87.9395L24.2849 87.0601C24.2927 87.0046 24.3163 86.9514 24.3558 86.9004C24.3953 86.8494 24.4336 86.8063 24.4709 86.7711L28.9184 81.7606C28.9748 81.7039 29.0121 81.6687 29.0302 81.6551C29.0573 81.6347 29.1104 81.63 29.1897 81.6411L30.2711 81.7929C30.3344 81.8018 30.3684 81.8187 30.373 81.8436C30.3776 81.8684 30.3749 81.9165 30.3649 81.9878L29.5777 87.5969L30.6829 87.752C30.7542 87.762 30.8 87.7805 30.8205 87.8076C30.842 87.8268 30.8472 87.876 30.8361 87.9552L30.7144 88.8227C30.7032 88.902 30.6841 88.9518 30.657 88.9722C30.631 88.9847 30.5824 88.986 30.5111 88.976L29.4059 88.8209ZM25.7512 87.0598L28.3062 87.4184L28.8498 83.5444L25.7512 87.0598ZM34.3838 91.64C33.3697 91.4977 32.6732 90.992 32.2943 90.1229C31.9245 89.247 31.8413 88.0842 32.0447 86.6344C32.1137 86.1432 32.2216 85.6333 32.3685 85.1045C32.5233 84.5769 32.7394 84.1024 33.0167 83.6808C33.3019 83.2604 33.6591 82.9308 34.0885 82.6922C34.5178 82.4535 35.0454 82.3781 35.6713 82.4659C36.0832 82.5238 36.4342 82.6417 36.7243 82.8197C37.0144 82.9978 37.2497 83.2206 37.4302 83.4883C37.6198 83.7492 37.7642 84.0441 37.8635 84.3731C37.9638 84.6942 38.0297 85.0306 38.0611 85.3824C38.0925 85.7342 38.0991 86.0905 38.0807 86.4515C38.0635 86.8045 38.0321 87.1435 37.9865 87.4683C37.8853 88.1892 37.7353 88.8265 37.5364 89.3803C37.3375 89.934 37.0875 90.3917 36.7863 90.7533C36.4862 91.1071 36.1356 91.3608 35.7343 91.5145C35.341 91.6694 34.8908 91.7112 34.3838 91.64ZM35.4895 83.7613C35.236 83.7257 35.0018 83.7534 34.7871 83.8444C34.5735 83.9276 34.377 84.0898 34.1977 84.3313C34.0184 84.5727 33.8597 84.8978 33.7216 85.3065C33.5913 85.7164 33.484 86.2224 33.3995 86.8245C33.3139 87.4345 33.2772 87.9545 33.2896 88.3844C33.3099 88.8154 33.373 89.1716 33.4789 89.4531C33.5848 89.7345 33.7285 89.9486 33.9099 90.0952C34.0924 90.2339 34.3104 90.321 34.5639 90.3566C34.8095 90.3911 35.0391 90.3668 35.2527 90.2836C35.4754 90.1937 35.6763 90.028 35.8556 89.7866C36.0349 89.5452 36.1897 89.2195 36.3199 88.8097C36.4581 88.4009 36.5699 87.8915 36.6556 87.2815C36.7401 86.6794 36.7722 86.1628 36.7519 85.7318C36.7395 85.3019 36.6803 84.9463 36.5744 84.6648C36.4685 84.3834 36.3204 84.1727 36.1299 84.0329C35.9486 83.8863 35.7351 83.7957 35.4895 83.7613ZM49.1703 92.9518C48.7403 93.3681 48.1767 93.5273 47.4795 93.4294C46.7744 93.3305 46.2685 93.0212 45.9617 92.5015C45.7072 92.0699 45.6339 91.4699 45.7418 90.7015C45.8485 89.9409 46.0847 89.3803 46.4504 89.0196C46.8815 88.5954 47.4536 88.4334 48.1666 88.5334C48.8717 88.6324 49.3692 88.9445 49.6589 89.4699C49.7885 89.6981 49.8723 89.9644 49.9104 90.2686C49.9496 90.5649 49.9425 90.9032 49.8891 91.2835C49.7824 92.0441 49.5428 92.6002 49.1703 92.9518ZM42.4901 92.7171C42.4394 92.7908 42.3851 92.8316 42.3275 92.8397C42.2687 92.8557 42.2076 92.8592 42.1442 92.8503L41.3124 92.7336C41.2252 92.7214 41.1646 92.6927 41.1306 92.6475C41.1033 92.6114 41.1286 92.5462 41.2065 92.4521L47.6158 83.9968C47.6846 83.9096 47.7625 83.872 47.8497 83.8843L48.8004 84.0177C48.9667 84.041 48.9986 84.1303 48.8961 84.2856L42.4901 92.7171ZM43.6607 87.7435C43.2318 88.1519 42.6687 88.3071 41.9715 88.2093C41.2744 88.1115 40.7679 87.8061 40.4521 87.2932C40.1998 86.8458 40.1271 86.2419 40.2338 85.4813C40.3394 84.7287 40.5751 84.172 40.9408 83.8114C41.1552 83.6072 41.406 83.4606 41.6932 83.3717C41.9803 83.2827 42.3022 83.2632 42.6587 83.3133C43.3558 83.4111 43.8527 83.7272 44.1493 84.2616C44.4106 84.7022 44.4879 85.3028 44.3812 86.0634C44.2755 86.816 44.0354 87.376 43.6607 87.7435ZM47.9796 89.7795C47.433 89.7028 47.1024 90.0725 46.9879 90.8885C46.9701 91.0152 46.9631 91.1516 46.9668 91.2975C46.9706 91.4434 46.9953 91.5842 47.0408 91.7199C47.0875 91.8476 47.1568 91.9583 47.2487 92.052C47.3406 92.1457 47.4697 92.2042 47.6361 92.2275C48.1748 92.3031 48.5014 91.9329 48.6159 91.1169C48.7304 90.3009 48.5183 89.8551 47.9796 89.7795ZM42.4733 84.5475C41.9267 84.4708 41.5961 84.8404 41.4816 85.6564C41.4627 85.7911 41.4546 85.9354 41.4572 86.0892C41.461 86.2352 41.4862 86.372 41.5329 86.4997C41.5796 86.6275 41.6489 86.7382 41.7407 86.8319C41.8405 86.9266 41.9697 86.9852 42.1281 87.0074C42.6747 87.0841 43.0059 86.7105 43.1215 85.8866C43.236 85.0706 43.02 84.6242 42.4733 84.5475Z" fill="#707171"/>
<circle cx="107.03" cy="62.2427" r="22.5" transform="rotate(7.98878 107.03 62.2427)" fill="#E7D7C7"/>
<path d="M99.7622 60.0576C101.563 63.8274 107.056 69.5221 114.617 62.1423" stroke="#1F1E1F" stroke-width="1.20471" stroke-linecap="round"/>
<circle cx="111.019" cy="58.7252" r="2.30769" transform="rotate(7.98878 111.019 58.7252)" fill="#1F1E1F"/>
<circle cx="104.163" cy="57.7623" r="2.30769" transform="rotate(7.98878 104.163 57.7623)" fill="#1F1E1F"/>
<path d="M95.1495 100.168C94.1355 100.025 93.439 99.5195 93.0601 98.6504C92.6903 97.7745 92.6071 96.6117 92.8105 95.1619C92.8795 94.6707 92.9874 94.1608 93.1343 93.632C93.2891 93.1044 93.5052 92.6299 93.7824 92.2083C94.0676 91.7879 94.4249 91.4583 94.8542 91.2197C95.2836 90.981 95.8112 90.9056 96.437 90.9935C96.849 91.0513 97.2 91.1692 97.4901 91.3472C97.7802 91.5253 98.0155 91.7481 98.196 92.0158C98.3856 92.2767 98.53 92.5716 98.6293 92.9006C98.7296 93.2217 98.7955 93.5581 98.8269 93.9099C98.8583 94.2617 98.8649 94.618 98.8465 94.979C98.8293 95.332 98.7979 95.671 98.7523 95.9958C98.6511 96.7167 98.5011 97.354 98.3022 97.9078C98.1033 98.4615 97.8533 98.9192 97.5521 99.2808C97.252 99.6346 96.9014 99.8883 96.5001 100.042C96.1068 100.197 95.6566 100.239 95.1495 100.168ZM96.2553 92.2888C96.0017 92.2532 95.7676 92.2809 95.5529 92.3719C95.3393 92.4551 95.1428 92.6173 94.9635 92.8588C94.7842 93.1002 94.6255 93.4253 94.4873 93.8341C94.3571 94.2439 94.2497 94.7499 94.1652 95.352C94.0796 95.962 94.043 96.482 94.0554 96.9119C94.0757 97.3429 94.1388 97.6991 94.2447 97.9806C94.3506 98.262 94.4943 98.4761 94.6756 98.6227C94.8581 98.7614 95.0761 98.8485 95.3297 98.8841C95.5753 98.9186 95.8049 98.8943 96.0185 98.8112C96.2411 98.7212 96.4421 98.5555 96.6214 98.3141C96.8007 98.0727 96.9555 97.747 97.0857 97.3372C97.2238 96.9284 97.3357 96.419 97.4213 95.809C97.5058 95.2069 97.5379 94.6903 97.5176 94.2593C97.5053 93.8294 97.4461 93.4738 97.3402 93.1923C97.2343 92.9109 97.0861 92.7002 96.8957 92.5604C96.7143 92.4138 96.5009 92.3232 96.2553 92.2888ZM109.936 101.479C109.506 101.896 108.942 102.055 108.245 101.957C107.54 101.858 107.034 101.549 106.728 101.029C106.473 100.597 106.4 99.9974 106.508 99.229C106.614 98.4684 106.85 97.9078 107.216 97.5471C107.647 97.1229 108.219 96.9609 108.932 97.0609C109.637 97.1599 110.135 97.472 110.425 97.9974C110.554 98.2256 110.638 98.4919 110.676 98.7961C110.715 99.0924 110.708 99.4307 110.655 99.811C110.548 100.572 110.309 101.128 109.936 101.479ZM103.256 101.245C103.205 101.318 103.151 101.359 103.093 101.367C103.034 101.383 102.973 101.387 102.91 101.378L102.078 101.261C101.991 101.249 101.93 101.22 101.896 101.175C101.869 101.139 101.894 101.074 101.972 100.98L108.382 92.5243C108.45 92.4371 108.528 92.3995 108.615 92.4118L109.566 92.5452C109.733 92.5685 109.764 92.6578 109.662 92.8131L103.256 101.245ZM104.426 96.271C103.998 96.6794 103.434 96.8346 102.737 96.7368C102.04 96.639 101.534 96.3336 101.218 95.8207C100.966 95.3733 100.893 94.7694 101 94.0088C101.105 93.2562 101.341 92.6995 101.707 92.3389C101.921 92.1347 102.172 91.9881 102.459 91.8992C102.746 91.8102 103.068 91.7907 103.424 91.8408C104.122 91.9386 104.618 92.2547 104.915 92.7892C105.176 93.2297 105.254 93.8303 105.147 94.5909C105.041 95.3435 104.801 95.9035 104.426 96.271ZM108.745 98.307C108.199 98.2303 107.868 98.6 107.754 99.416C107.736 99.5427 107.729 99.6791 107.733 99.825C107.736 99.9709 107.761 100.112 107.807 100.247C107.853 100.375 107.923 100.486 108.014 100.58C108.106 100.673 108.235 100.732 108.402 100.755C108.941 100.831 109.267 100.46 109.382 99.6444C109.496 98.8284 109.284 98.3826 108.745 98.307ZM103.239 93.075C102.692 92.9983 102.362 93.3679 102.247 94.1839C102.228 94.3186 102.22 94.4629 102.223 94.6167C102.227 94.7627 102.252 94.8995 102.299 95.0272C102.345 95.155 102.415 95.2657 102.507 95.3594C102.606 95.4541 102.735 95.5127 102.894 95.5349C103.441 95.6116 103.772 95.238 103.887 94.4141C104.002 93.5981 103.786 93.1517 103.239 93.075Z" fill="#707171"/>
<circle cx="171.399" cy="71.2768" r="22.5" transform="rotate(7.98878 171.399 71.2768)" fill="#D4B2A9"/>
<circle cx="167.961" cy="66.7164" r="2.30769" transform="rotate(7.98878 167.961 66.7164)" fill="#1F1E1F"/>
<circle cx="175.959" cy="67.8394" r="2.30769" transform="rotate(7.98878 175.959 67.8394)" fill="#1F1E1F"/>
<path d="M162.508 72.3604L179.648 74.7658" stroke="#1F1E1F" stroke-width="1.20471" stroke-linecap="round"/>
<path d="M155.674 108.602C155.563 108.586 155.515 108.527 155.529 108.424L156.517 101.389L155.531 102.026C155.487 102.052 155.436 102.065 155.38 102.065C155.331 102.066 155.293 102.049 155.266 102.013L154.821 101.296C154.802 101.261 154.795 101.224 154.8 101.184C154.815 101.138 154.845 101.098 154.89 101.063L156.943 99.6431C156.962 99.6294 156.991 99.6175 157.033 99.6072C157.075 99.5969 157.108 99.5934 157.132 99.5968L157.762 99.6852C157.896 99.7041 157.973 99.731 157.993 99.7661C158.021 99.7943 158.024 99.8876 158.002 100.046L156.801 108.602C156.787 108.705 156.728 108.749 156.625 108.735L155.674 108.602ZM163.122 109.707C162.108 109.565 161.412 109.059 161.033 108.19C160.663 107.314 160.58 106.152 160.783 104.702C160.852 104.211 160.96 103.701 161.107 103.172C161.262 102.644 161.478 102.17 161.755 101.748C162.04 101.328 162.397 100.998 162.827 100.76C163.256 100.521 163.784 100.445 164.41 100.533C164.822 100.591 165.173 100.709 165.463 100.887C165.753 101.065 165.988 101.288 166.169 101.556C166.358 101.817 166.503 102.112 166.602 102.441C166.702 102.762 166.768 103.098 166.799 103.45C166.831 103.802 166.837 104.158 166.819 104.519C166.802 104.872 166.77 105.211 166.725 105.536C166.624 106.257 166.474 106.894 166.275 107.448C166.076 108.001 165.826 108.459 165.525 108.821C165.225 109.174 164.874 109.428 164.473 109.582C164.079 109.737 163.629 109.779 163.122 109.707ZM164.228 101.829C163.974 101.793 163.74 101.821 163.525 101.912C163.312 101.995 163.115 102.157 162.936 102.399C162.757 102.64 162.598 102.965 162.46 103.374C162.33 103.784 162.222 104.29 162.138 104.892C162.052 105.502 162.016 106.022 162.028 106.452C162.048 106.883 162.111 107.239 162.217 107.52C162.323 107.802 162.467 108.016 162.648 108.163C162.831 108.301 163.049 108.388 163.302 108.424C163.548 108.458 163.777 108.434 163.991 108.351C164.214 108.261 164.415 108.095 164.594 107.854C164.773 107.613 164.928 107.287 165.058 106.877C165.196 106.468 165.308 105.959 165.394 105.349C165.478 104.747 165.51 104.23 165.49 103.799C165.478 103.369 165.419 103.014 165.313 102.732C165.207 102.451 165.059 102.24 164.868 102.1C164.687 101.954 164.473 101.863 164.228 101.829ZM177.909 111.019C177.479 111.435 176.915 111.595 176.218 111.497C175.513 111.398 175.007 111.089 174.7 110.569C174.446 110.137 174.372 109.537 174.48 108.769C174.587 108.008 174.823 107.448 175.189 107.087C175.62 106.663 176.192 106.501 176.905 106.601C177.61 106.7 178.107 107.012 178.397 107.537C178.527 107.766 178.611 108.032 178.649 108.336C178.688 108.632 178.681 108.971 178.627 109.351C178.521 110.111 178.281 110.668 177.909 111.019ZM171.228 110.784C171.178 110.858 171.123 110.899 171.066 110.907C171.007 110.923 170.946 110.927 170.882 110.918L170.051 110.801C169.964 110.789 169.903 110.76 169.869 110.715C169.842 110.679 169.867 110.614 169.945 110.52L176.354 102.064C176.423 101.977 176.501 101.939 176.588 101.952L177.539 102.085C177.705 102.108 177.737 102.198 177.634 102.353L171.228 110.784ZM172.399 105.811C171.97 106.219 171.407 106.375 170.71 106.277C170.013 106.179 169.506 105.873 169.19 105.361C168.938 104.913 168.865 104.309 168.972 103.549C169.078 102.796 169.313 102.239 169.679 101.879C169.894 101.675 170.144 101.528 170.431 101.439C170.719 101.35 171.04 101.331 171.397 101.381C172.094 101.478 172.591 101.795 172.888 102.329C173.149 102.77 173.226 103.37 173.119 104.131C173.014 104.883 172.774 105.443 172.399 105.811ZM176.718 107.847C176.171 107.77 175.841 108.14 175.726 108.956C175.708 109.083 175.701 109.219 175.705 109.365C175.709 109.511 175.734 109.652 175.779 109.787C175.826 109.915 175.895 110.026 175.987 110.119C176.079 110.213 176.208 110.272 176.374 110.295C176.913 110.371 177.24 110 177.354 109.184C177.469 108.368 177.257 107.923 176.718 107.847ZM171.212 102.615C170.665 102.538 170.334 102.908 170.22 103.724C170.201 103.858 170.193 104.003 170.195 104.157C170.199 104.303 170.224 104.439 170.271 104.567C170.318 104.695 170.387 104.806 170.479 104.899C170.579 104.994 170.708 105.053 170.866 105.075C171.413 105.151 171.744 104.778 171.86 103.954C171.974 103.138 171.758 102.692 171.212 102.615Z" fill="#707171"/>
<circle cx="235.768" cy="80.31" r="22.5" transform="rotate(7.98878 235.768 80.31)" fill="#C88973"/>
<path d="M227.619 84.4104C230.816 81.0004 237.889 77.6508 242.473 86.4951" stroke="#1F1E1F" stroke-width="1.20471" stroke-linecap="round"/>
<circle cx="239.757" cy="76.7925" r="2.30769" transform="rotate(7.98878 239.757 76.7925)" fill="#1F1E1F"/>
<circle cx="232.901" cy="75.8297" r="2.30769" transform="rotate(7.98878 232.901 75.8297)" fill="#1F1E1F"/>
<path d="M217.546 117.296C217.396 117.275 217.327 117.213 217.342 117.11L217.437 116.433C217.446 116.37 217.471 116.308 217.511 116.249C217.56 116.192 217.612 116.134 217.669 116.078L219.775 114.192C220.543 113.5 221.122 112.915 221.512 112.436C221.902 111.958 222.121 111.552 222.167 111.22C222.221 110.839 222.146 110.51 221.943 110.231C221.747 109.953 221.479 109.79 221.139 109.742C220.814 109.697 220.49 109.7 220.168 109.752C219.855 109.797 219.505 109.897 219.12 110.053C219.051 110.084 218.985 110.095 218.922 110.086C218.859 110.069 218.825 110.024 218.819 109.95L218.78 109.024C218.769 108.982 218.779 108.943 218.808 108.906C218.838 108.87 218.895 108.834 218.981 108.797C219.304 108.681 219.669 108.587 220.075 108.515C220.481 108.442 220.87 108.432 221.243 108.485C221.623 108.538 221.964 108.642 222.265 108.798C222.575 108.946 222.83 109.144 223.03 109.39C223.239 109.629 223.388 109.917 223.479 110.253C223.569 110.588 223.585 110.962 223.527 111.374C223.477 111.731 223.347 112.084 223.136 112.434C222.926 112.776 222.678 113.109 222.39 113.432C222.104 113.747 221.803 114.049 221.488 114.336C221.174 114.615 220.888 114.869 220.629 115.1C220.425 115.289 220.207 115.489 219.976 115.699C219.753 115.902 219.528 116.1 219.298 116.294L222.78 116.783C222.891 116.798 222.938 116.87 222.92 116.996L222.803 117.828C222.784 117.963 222.719 118.022 222.608 118.007L217.546 117.296ZM229.45 118.252C229.128 118.474 228.752 118.619 228.323 118.688C227.893 118.757 227.452 118.759 227.001 118.696C226.921 118.685 226.8 118.66 226.636 118.621C226.478 118.59 226.307 118.546 226.121 118.488C225.942 118.438 225.761 118.377 225.578 118.302C225.401 118.237 225.254 118.164 225.136 118.083C225.085 118.043 225.057 118.007 225.054 117.974C225.057 117.951 225.063 117.911 225.071 117.856L225.206 116.893C225.226 116.75 225.313 116.73 225.469 116.833C225.579 116.913 225.709 116.988 225.861 117.058C226.014 117.12 226.172 117.178 226.333 117.233C226.495 117.288 226.654 117.335 226.811 117.373C226.975 117.412 227.128 117.442 227.271 117.462C227.802 117.536 228.258 117.447 228.641 117.193C229.032 116.941 229.265 116.55 229.339 116.019C229.412 115.504 229.326 115.076 229.083 114.735C228.849 114.387 228.408 114.168 227.758 114.076C227.497 114.04 227.223 114.03 226.938 114.046C226.661 114.064 226.389 114.102 226.122 114.162C225.795 114.245 225.651 114.152 225.689 113.883L226.364 109.506C226.384 109.42 226.407 109.367 226.435 109.347C226.462 109.326 226.535 109.324 226.653 109.341L231.003 109.951C231.05 109.958 231.084 109.979 231.103 110.014C231.13 110.05 231.141 110.088 231.136 110.128L231.007 111.043C231.002 111.082 230.98 111.12 230.943 111.155C230.915 111.183 230.877 111.194 230.829 111.187L227.526 110.724L227.168 112.927C227.487 112.899 227.841 112.913 228.229 112.967C228.625 113.023 228.988 113.138 229.319 113.314C229.651 113.482 229.927 113.702 230.147 113.976C230.376 114.242 230.539 114.552 230.635 114.904C230.739 115.258 230.762 115.641 230.704 116.053C230.564 117.051 230.146 117.784 229.45 118.252ZM242.278 120.052C241.848 120.469 241.284 120.628 240.587 120.53C239.882 120.431 239.376 120.122 239.069 119.602C238.815 119.171 238.741 118.571 238.849 117.802C238.956 117.042 239.192 116.481 239.558 116.12C239.989 115.696 240.561 115.534 241.274 115.634C241.979 115.733 242.477 116.045 242.766 116.571C242.896 116.799 242.98 117.065 243.018 117.369C243.057 117.666 243.05 118.004 242.997 118.384C242.89 119.145 242.65 119.701 242.278 120.052ZM235.598 119.818C235.547 119.891 235.493 119.932 235.435 119.94C235.376 119.956 235.315 119.96 235.252 119.951L234.42 119.834C234.333 119.822 234.272 119.793 234.238 119.748C234.211 119.712 234.236 119.647 234.314 119.553L240.723 111.097C240.792 111.01 240.87 110.973 240.957 110.985L241.908 111.118C242.074 111.142 242.106 111.231 242.003 111.386L235.598 119.818ZM236.768 114.844C236.339 115.252 235.776 115.408 235.079 115.31C234.382 115.212 233.875 114.907 233.56 114.394C233.307 113.946 233.234 113.342 233.341 112.582C233.447 111.829 233.683 111.273 234.048 110.912C234.263 110.708 234.513 110.561 234.801 110.472C235.088 110.383 235.41 110.364 235.766 110.414C236.463 110.512 236.96 110.828 237.257 111.362C237.518 111.803 237.595 112.403 237.489 113.164C237.383 113.917 237.143 114.477 236.768 114.844ZM241.087 116.88C240.54 116.803 240.21 117.173 240.095 117.989C240.078 118.116 240.07 118.252 240.074 118.398C240.078 118.544 240.103 118.685 240.148 118.82C240.195 118.948 240.264 119.059 240.356 119.153C240.448 119.246 240.577 119.305 240.743 119.328C241.282 119.404 241.609 119.034 241.723 118.218C241.838 117.402 241.626 116.956 241.087 116.88ZM235.581 111.648C235.034 111.571 234.704 111.941 234.589 112.757C234.57 112.892 234.562 113.036 234.565 113.19C234.568 113.336 234.594 113.473 234.64 113.6C234.687 113.728 234.756 113.839 234.848 113.932C234.948 114.027 235.077 114.086 235.236 114.108C235.782 114.185 236.113 113.811 236.229 112.987C236.343 112.171 236.127 111.725 235.581 111.648Z" fill="#707171"/>
<circle cx="300.137" cy="89.3442" r="22.5" transform="rotate(7.98878 300.137 89.3442)" fill="#AA5C4E"/>
<path d="M291.987 93.4446C295.184 90.0346 302.257 86.685 306.841 95.5293" stroke="#1F1E1F" stroke-width="1.20471" stroke-linecap="round"/>
<path d="M306.982 86.2304C306.805 87.4925 305.639 88.3721 304.376 88.195C303.114 88.0179 302.235 86.8511 302.412 85.589C302.589 84.3268 303.676 84.0186 304.938 84.1957C306.2 84.3729 307.16 84.9683 306.982 86.2304Z" fill="#1F1E1F"/>
<line x1="304.266" y1="84.6794" x2="311.204" y2="83.3294" stroke="#1F1E1F" stroke-width="1.20471" stroke-linecap="round"/>
<path d="M300.128 85.2597C299.951 86.5218 298.784 87.4014 297.522 87.2243C296.26 87.0472 295.38 85.8804 295.557 84.6183C295.734 83.3561 296.821 83.0479 298.083 83.225C299.345 83.4021 300.305 83.9976 300.128 85.2597Z" fill="#1F1E1F"/>
<line x1="298.947" y1="84.1558" x2="292.961" y2="80.3979" stroke="#1F1E1F" stroke-width="1.20471" stroke-linecap="round"/>
<path d="M281.915 126.331C281.765 126.31 281.697 126.247 281.711 126.144L281.806 125.467C281.815 125.404 281.84 125.343 281.88 125.284C281.929 125.226 281.981 125.169 282.038 125.112L284.144 123.226C284.912 122.534 285.491 121.949 285.881 121.471C286.271 120.992 286.49 120.587 286.537 120.254C286.59 119.874 286.515 119.544 286.312 119.265C286.117 118.987 285.849 118.824 285.508 118.777C285.183 118.731 284.86 118.734 284.537 118.786C284.224 118.831 283.875 118.931 283.489 119.087C283.42 119.118 283.354 119.129 283.291 119.12C283.228 119.103 283.194 119.058 283.189 118.984L283.149 118.058C283.139 118.016 283.148 117.977 283.177 117.941C283.207 117.904 283.264 117.868 283.35 117.832C283.674 117.715 284.038 117.621 284.444 117.549C284.85 117.477 285.239 117.467 285.612 117.519C285.992 117.572 286.333 117.677 286.634 117.832C286.944 117.981 287.2 118.178 287.399 118.424C287.608 118.663 287.757 118.951 287.848 119.287C287.938 119.623 287.954 119.996 287.896 120.408C287.846 120.765 287.716 121.118 287.505 121.468C287.296 121.811 287.047 122.143 286.759 122.466C286.473 122.782 286.172 123.083 285.857 123.37C285.543 123.649 285.257 123.904 284.998 124.134C284.794 124.323 284.576 124.523 284.345 124.733C284.122 124.936 283.897 125.134 283.667 125.328L287.149 125.817C287.26 125.833 287.307 125.904 287.289 126.031L287.172 126.862C287.153 126.997 287.088 127.057 286.978 127.041L281.915 126.331ZM293.819 127.286C293.497 127.508 293.122 127.653 292.692 127.722C292.262 127.791 291.821 127.794 291.37 127.73C291.291 127.719 291.169 127.694 291.005 127.655C290.847 127.625 290.676 127.58 290.49 127.522C290.311 127.473 290.13 127.411 289.947 127.337C289.77 127.271 289.623 127.198 289.505 127.117C289.454 127.078 289.427 127.041 289.423 127.009C289.426 126.985 289.432 126.945 289.44 126.89L289.575 125.927C289.595 125.785 289.683 125.765 289.838 125.867C289.948 125.947 290.079 126.022 290.23 126.092C290.383 126.154 290.541 126.212 290.703 126.267C290.865 126.322 291.024 126.369 291.18 126.407C291.344 126.446 291.497 126.476 291.64 126.496C292.171 126.57 292.628 126.481 293.011 126.228C293.401 125.976 293.634 125.584 293.708 125.053C293.781 124.538 293.695 124.11 293.452 123.769C293.219 123.421 292.777 123.202 292.127 123.111C291.866 123.074 291.592 123.064 291.307 123.08C291.03 123.098 290.758 123.137 290.491 123.196C290.165 123.28 290.02 123.187 290.058 122.917L290.733 118.54C290.753 118.454 290.777 118.401 290.804 118.381C290.831 118.36 290.904 118.358 291.023 118.375L295.372 118.986C295.419 118.992 295.453 119.013 295.472 119.048C295.499 119.084 295.51 119.122 295.505 119.162L295.376 120.077C295.371 120.116 295.349 120.154 295.312 120.189C295.284 120.217 295.246 120.228 295.198 120.221L291.895 119.758L291.537 121.961C291.856 121.934 292.21 121.947 292.598 122.001C292.994 122.057 293.357 122.173 293.688 122.348C294.02 122.516 294.296 122.736 294.516 123.01C294.746 123.276 294.908 123.586 295.004 123.938C295.108 124.292 295.131 124.675 295.073 125.087C294.933 126.085 294.515 126.818 293.819 127.286ZM306.647 129.087C306.217 129.503 305.653 129.662 304.956 129.564C304.251 129.465 303.745 129.156 303.438 128.636C303.184 128.205 303.11 127.605 303.218 126.836C303.325 126.076 303.561 125.515 303.927 125.154C304.358 124.73 304.93 124.568 305.643 124.668C306.348 124.767 306.846 125.079 307.136 125.605C307.265 125.833 307.349 126.099 307.387 126.403C307.426 126.7 307.419 127.038 307.366 127.418C307.259 128.179 307.019 128.735 306.647 129.087ZM299.967 128.852C299.916 128.926 299.862 128.966 299.804 128.974C299.745 128.99 299.684 128.994 299.621 128.985L298.789 128.868C298.702 128.856 298.641 128.827 298.607 128.782C298.58 128.746 298.605 128.681 298.683 128.587L305.092 120.132C305.161 120.044 305.239 120.007 305.326 120.019L306.277 120.152C306.443 120.176 306.475 120.265 306.373 120.42L299.967 128.852ZM301.137 123.878C300.708 124.287 300.145 124.442 299.448 124.344C298.751 124.246 298.244 123.941 297.929 123.428C297.676 122.981 297.604 122.377 297.71 121.616C297.816 120.863 298.052 120.307 298.417 119.946C298.632 119.742 298.883 119.595 299.17 119.506C299.457 119.417 299.779 119.398 300.135 119.448C300.832 119.546 301.329 119.862 301.626 120.396C301.887 120.837 301.964 121.438 301.858 122.198C301.752 122.951 301.512 123.511 301.137 123.878ZM305.456 125.914C304.91 125.838 304.579 126.207 304.464 127.023C304.447 127.15 304.44 127.286 304.443 127.432C304.447 127.578 304.472 127.719 304.517 127.855C304.564 127.982 304.633 128.093 304.725 128.187C304.817 128.28 304.946 128.339 305.113 128.362C305.651 128.438 305.978 128.068 306.092 127.252C306.207 126.436 305.995 125.99 305.456 125.914ZM299.95 120.682C299.403 120.606 299.073 120.975 298.958 121.791C298.939 121.926 298.931 122.07 298.934 122.224C298.938 122.37 298.963 122.507 299.009 122.635C299.056 122.762 299.125 122.873 299.217 122.967C299.317 123.061 299.446 123.12 299.605 123.142C300.151 123.219 300.482 122.845 300.598 122.021C300.713 121.205 300.497 120.759 299.95 120.682Z" fill="#707171"/>
</g>
<g clip-path="url(#clip2_5627_6452)">
<rect x="2.62354" y="104.645" width="331" height="26" rx="13" transform="rotate(7.98878 2.62354 104.645)" fill="#D9D9D9"/>
<path d="M0.816805 117.518C1.81463 110.408 8.38735 105.453 15.4974 106.451L142.255 124.241L138.642 149.988L11.8839 132.199C4.77389 131.201 -0.181024 124.628 0.816805 117.518V117.518Z" fill="#EDEAE3"/>
<rect width="30" height="26" transform="matrix(-0.990295 -0.138979 -0.138979 0.990295 171.964 128.41)" fill="#D4B2A9"/>
<rect width="80" height="26" transform="matrix(-0.990295 -0.138979 -0.138979 0.990295 251.188 139.528)" fill="#C88973"/>
<path d="M328.604 163.52C329.602 156.41 324.647 149.838 317.537 148.84L251.188 139.528L247.574 165.276L313.924 174.587C321.034 175.585 327.607 170.63 328.604 163.52V163.52Z" fill="#AA5C4E"/>
</g>
</g>
<rect x="29.1182" y="407.874" width="375" height="234.656" rx="8" transform="rotate(10.8369 29.1182 407.874)" fill="white"/>
<g clip-path="url(#clip3_5627_6452)">
<g clip-path="url(#clip4_5627_6452)">
<circle cx="51.0924" cy="448.634" r="14.1102" transform="rotate(10.8369 51.0924 448.634)" fill="#EDEAE3"/>
<path d="M57.0337 450.142C57.4435 450.22 57.7184 450.62 57.5639 451.008C57.4104 451.393 57.1959 451.758 56.9244 452.095C56.4874 452.637 55.9113 453.095 55.2289 453.443C54.5465 453.791 53.7713 454.023 52.9474 454.124C52.1235 454.226 51.2671 454.195 50.4271 454.034C49.5872 453.874 48.7801 453.586 48.0519 453.187C47.3237 452.789 46.6888 452.287 46.1832 451.712C45.6777 451.136 45.3116 450.497 45.1057 449.832C44.9778 449.419 44.9132 449.001 44.9127 448.586C44.9122 448.169 45.3154 447.899 45.7252 447.977L51.3795 449.06L57.0337 450.142Z" fill="#1F1E1F"/>
<circle cx="49.7914" cy="445.809" r="1.4472" transform="rotate(10.8369 49.7914 445.809)" fill="#1F1E1F"/>
<circle cx="54.056" cy="446.625" r="1.4472" transform="rotate(10.8369 54.056 446.625)" fill="#1F1E1F"/>
</g>
<circle cx="44.6075" cy="482.51" r="14.1102" transform="rotate(10.8369 44.6075 482.51)" fill="#E7D7C7"/>
<path d="M40.1235 480.914C41.1343 483.331 44.3971 487.069 49.3626 482.683" stroke="#1F1E1F" stroke-width="0.755494" stroke-linecap="round"/>
<circle cx="47.2157" cy="480.431" r="1.4472" transform="rotate(10.8369 47.2157 480.431)" fill="#1F1E1F"/>
<circle cx="42.9515" cy="479.614" r="1.4472" transform="rotate(10.8369 42.9515 479.614)" fill="#1F1E1F"/>
<circle cx="38.1226" cy="516.387" r="14.1102" transform="rotate(10.8369 38.1226 516.387)" fill="#D4B2A9"/>
<circle cx="36.1112" cy="513.423" r="1.4472" transform="rotate(10.8369 36.1112 513.423)" fill="#1F1E1F"/>
<circle cx="41.0863" cy="514.376" r="1.4472" transform="rotate(10.8369 41.0863 514.376)" fill="#1F1E1F"/>
<path d="M32.52 516.788L43.1804 518.829" stroke="#1F1E1F" stroke-width="0.755494" stroke-linecap="round"/>
<circle cx="31.6378" cy="550.263" r="14.1102" transform="rotate(10.8369 31.6378 550.263)" fill="#C88973"/>
<path d="M26.4055 552.579C28.5144 550.543 33.0486 548.665 35.6445 554.348" stroke="#1F1E1F" stroke-width="0.755494" stroke-linecap="round"/>
<circle cx="34.2455" cy="548.184" r="1.4472" transform="rotate(10.8369 34.2455 548.184)" fill="#1F1E1F"/>
<circle cx="29.9818" cy="547.367" r="1.4472" transform="rotate(10.8369 29.9818 547.367)" fill="#1F1E1F"/>
<circle cx="25.1529" cy="584.14" r="14.1102" transform="rotate(10.8369 25.1529 584.14)" fill="#AA5C4E"/>
<path d="M19.9207 586.453C22.0295 584.417 26.5638 582.539 29.1597 588.222" stroke="#1F1E1F" stroke-width="0.755494" stroke-linecap="round"/>
<path d="M29.5376 582.404C29.3874 583.189 28.6292 583.704 27.8442 583.553C27.0591 583.403 26.5446 582.645 26.6949 581.86C26.8451 581.075 27.5353 580.916 28.3203 581.066C29.1053 581.216 29.6879 581.619 29.5376 582.404Z" fill="#1F1E1F"/>
<line x1="27.8842" y1="581.348" x2="32.272" y2="580.718" stroke="#1F1E1F" stroke-width="0.755494" stroke-linecap="round"/>
<path d="M25.274 581.582C25.1237 582.367 24.3655 582.881 23.5805 582.731C22.7955 582.581 22.2809 581.823 22.4312 581.038C22.5815 580.253 23.2716 580.093 24.0566 580.244C24.8417 580.394 25.4242 580.797 25.274 581.582Z" fill="#1F1E1F"/>
<line x1="24.5687" y1="580.854" x2="20.936" y2="578.314" stroke="#1F1E1F" stroke-width="0.755494" stroke-linecap="round"/>
</g>
<line x1="47.5315" y1="598.899" x2="342.181" y2="655.303" stroke="black"/>
<g clip-path="url(#clip5_5627_6452)">
<path d="M46.6749 618.231C46.5649 618.21 46.5196 618.148 46.5392 618.046L47.8748 611.069L46.8583 611.656C46.813 611.68 46.7621 611.69 46.7056 611.688C46.6569 611.687 46.6199 611.667 46.5945 611.63L46.1859 610.892C46.1684 610.856 46.1634 610.818 46.1709 610.779C46.1878 610.733 46.2196 610.695 46.2664 610.663L48.3878 609.346C48.4065 609.334 48.437 609.323 48.4793 609.315C48.5216 609.307 48.5545 609.305 48.5781 609.309L49.2028 609.429C49.3364 609.455 49.4119 609.485 49.4295 609.521C49.4564 609.551 49.4548 609.644 49.4247 609.801L47.8003 618.287C47.7807 618.389 47.7199 618.431 47.6177 618.411L46.6749 618.231Z" fill="#707171"/>
<path d="M91.3416 626.793C91.1923 626.764 91.1274 626.699 91.147 626.597L91.2756 625.925C91.2876 625.862 91.3154 625.802 91.3588 625.746C91.4101 625.69 91.4654 625.636 91.5246 625.582L93.7222 623.803C94.5232 623.15 95.1305 622.595 95.5441 622.136C95.9577 621.678 96.196 621.283 96.2592 620.953C96.3314 620.576 96.273 620.243 96.0839 619.955C95.9026 619.667 95.6431 619.492 95.3052 619.427C94.9831 619.365 94.6597 619.352 94.3353 619.388C94.0201 619.417 93.6662 619.5 93.2735 619.637C93.2032 619.664 93.1365 619.671 93.0737 619.659C93.0123 619.64 92.9806 619.593 92.9784 619.519L92.9848 618.592C92.9767 618.549 92.9881 618.511 93.0192 618.476C93.0503 618.441 93.1096 618.408 93.1972 618.376C93.5259 618.276 93.8948 618.2 94.3038 618.148C94.7129 618.096 95.1021 618.105 95.4714 618.176C95.8485 618.248 96.1837 618.369 96.477 618.539C96.7796 618.703 97.0245 618.913 97.2117 619.169C97.4084 619.418 97.5434 619.713 97.6168 620.053C97.6902 620.393 97.6878 620.767 97.6096 621.175C97.5419 621.529 97.3941 621.875 97.1663 622.214C96.94 622.546 96.6751 622.866 96.3717 623.174C96.0698 623.475 95.7544 623.761 95.4256 624.032C95.0983 624.295 94.7998 624.535 94.5302 624.752C94.3167 624.931 94.0892 625.12 93.8476 625.318C93.6154 625.51 93.3801 625.697 93.1415 625.879L96.5948 626.54C96.7048 626.561 96.7478 626.635 96.7237 626.76L96.5658 627.585C96.5402 627.719 96.4724 627.775 96.3624 627.754L91.3416 626.793Z" fill="#707171"/>
<path d="M142.966 636.028C142.621 636.214 142.226 636.322 141.78 636.35C141.341 636.389 140.894 636.364 140.438 636.277C140.1 636.212 139.764 636.115 139.431 635.986C139.103 635.866 138.804 635.728 138.533 635.57C138.459 635.531 138.41 635.489 138.386 635.444C138.361 635.407 138.359 635.353 138.38 635.284L138.655 634.42C138.677 634.351 138.709 634.309 138.753 634.293C138.797 634.276 138.87 634.299 138.973 634.359C139.165 634.461 139.357 634.563 139.549 634.665C139.743 634.759 139.945 634.834 140.154 634.891C140.316 634.938 140.482 634.982 140.654 635.023C140.825 635.064 140.995 635.092 141.163 635.108C141.34 635.118 141.508 635.113 141.666 635.095C141.834 635.07 141.994 635.023 142.145 634.954C142.572 634.767 142.836 634.41 142.937 633.884C142.971 633.703 142.961 633.522 142.906 633.34C142.861 633.152 142.764 632.979 142.615 632.82C142.467 632.654 142.263 632.509 142.002 632.385C141.75 632.256 141.435 632.155 141.058 632.082L140.468 631.97C140.406 631.958 140.364 631.941 140.343 631.921C140.332 631.895 140.333 631.85 140.345 631.787L140.512 630.915C140.525 630.844 140.541 630.802 140.56 630.79C140.586 630.779 140.631 630.779 140.694 630.791L141.26 630.899C141.433 630.932 141.645 630.949 141.898 630.948C142.152 630.94 142.404 630.898 142.655 630.824C142.905 630.75 143.126 630.638 143.318 630.487C143.518 630.338 143.642 630.134 143.692 629.874C143.731 629.67 143.714 629.483 143.64 629.315C143.567 629.146 143.456 628.998 143.309 628.873C143.17 628.748 143.01 628.648 142.829 628.573C142.65 628.49 142.477 628.432 142.312 628.401C142.202 628.38 142.07 628.367 141.917 628.362C141.771 628.358 141.615 628.361 141.451 628.37C141.295 628.373 141.135 628.383 140.968 628.4C140.802 628.417 140.652 628.437 140.517 628.46C140.415 628.481 140.346 628.48 140.31 628.457C140.275 628.426 140.257 628.374 140.255 628.3L140.313 627.419C140.306 627.369 140.319 627.327 140.35 627.292C140.381 627.257 140.443 627.232 140.535 627.217C140.905 627.158 141.262 627.124 141.605 627.117C141.949 627.109 142.285 627.137 142.615 627.2C142.969 627.268 143.306 627.377 143.628 627.528C143.957 627.681 144.234 627.873 144.459 628.103C144.691 628.335 144.862 628.612 144.971 628.934C145.081 629.256 145.097 629.618 145.02 630.019C144.98 630.231 144.9 630.435 144.781 630.633C144.669 630.831 144.529 631.012 144.359 631.175C144.19 631.338 143.996 631.476 143.779 631.589C143.562 631.702 143.334 631.785 143.096 631.837C143.571 632.164 143.908 632.53 144.108 632.935C144.309 633.332 144.368 633.746 144.285 634.179C144.205 634.595 144.05 634.96 143.819 635.274C143.595 635.59 143.311 635.841 142.966 636.028Z" fill="#707171"/>
<path d="M190.659 643.716L190.316 645.508C190.3 645.594 190.277 645.647 190.249 645.666C190.22 645.693 190.162 645.698 190.075 645.682L189.227 645.519C189.14 645.503 189.084 645.476 189.059 645.438C189.041 645.402 189.04 645.345 189.055 645.266L189.398 643.475L185.627 642.753C185.548 642.738 185.498 642.72 185.478 642.7C185.457 642.68 185.453 642.638 185.465 642.575L185.632 641.703C185.643 641.648 185.669 641.596 185.711 641.547C185.753 641.498 185.793 641.457 185.832 641.424L190.523 636.641C190.582 636.587 190.621 636.553 190.64 636.541C190.668 636.522 190.721 636.52 190.8 636.535L191.872 636.74C191.935 636.752 191.968 636.771 191.972 636.796C191.975 636.821 191.97 636.869 191.956 636.939L190.892 642.502L191.988 642.712C192.058 642.726 192.103 642.747 192.122 642.775C192.143 642.795 192.146 642.844 192.131 642.923L191.966 643.783C191.951 643.862 191.929 643.911 191.901 643.93C191.875 643.941 191.826 643.94 191.755 643.926L190.659 643.716ZM187.096 641.776L189.63 642.261L190.366 638.419L187.096 641.776Z" fill="#707171"/>
<path d="M237.468 654.045C237.136 654.25 236.753 654.376 236.32 654.424C235.888 654.471 235.447 654.452 235 654.367C234.921 654.352 234.801 654.32 234.639 654.273C234.483 654.235 234.314 654.182 234.131 654.115C233.955 654.057 233.777 653.986 233.598 653.903C233.425 653.829 233.281 653.749 233.167 653.662C233.118 653.62 233.093 653.582 233.091 653.549C233.096 653.526 233.103 653.486 233.114 653.431L233.296 652.477C233.324 652.335 233.412 652.32 233.562 652.43C233.668 652.515 233.795 652.597 233.943 652.674C234.093 652.743 234.247 652.809 234.406 652.872C234.565 652.935 234.721 652.99 234.876 653.036C235.038 653.083 235.189 653.12 235.331 653.147C235.857 653.248 236.318 653.181 236.713 652.947C237.116 652.715 237.368 652.336 237.468 651.809C237.566 651.298 237.502 650.867 237.276 650.514C237.06 650.155 236.63 649.914 235.985 649.79C235.726 649.741 235.454 649.717 235.168 649.719C234.891 649.723 234.617 649.748 234.348 649.795C234.017 649.862 233.877 649.762 233.928 649.494L234.82 645.157C234.844 645.072 234.871 645.02 234.899 645.001C234.927 644.982 235 644.983 235.118 645.006L239.431 645.832C239.478 645.841 239.511 645.863 239.528 645.899C239.554 645.937 239.563 645.975 239.555 646.014L239.381 646.922C239.374 646.961 239.351 646.997 239.312 647.031C239.282 647.057 239.244 647.066 239.197 647.057L235.92 646.43L235.453 648.613C235.773 648.601 236.126 648.632 236.511 648.706C236.904 648.781 237.261 648.915 237.583 649.106C237.906 649.291 238.17 649.524 238.377 649.808C238.592 650.086 238.739 650.403 238.818 650.76C238.904 651.119 238.908 651.502 238.83 651.911C238.64 652.901 238.186 653.612 237.468 654.045Z" fill="#707171"/>
<path d="M282.636 663.498C281.709 663.32 281.06 662.838 280.689 662.05C280.328 661.256 280.288 660.124 280.57 658.655C280.696 657.995 280.882 657.383 281.129 656.819C281.376 656.248 281.696 655.771 282.086 655.39C282.485 655.01 282.96 654.738 283.513 654.575C284.065 654.412 284.707 654.401 285.438 654.541C285.666 654.584 285.913 654.652 286.181 654.744C286.456 654.837 286.678 654.933 286.847 655.03C286.913 655.067 286.935 655.125 286.912 655.202L286.696 656.138C286.659 656.245 286.59 656.264 286.489 656.196C286.3 656.078 286.09 655.985 285.859 655.916C285.635 655.849 285.386 655.789 285.111 655.737C284.703 655.658 284.339 655.662 284.022 655.748C283.713 655.827 283.437 655.97 283.194 656.176C282.951 656.382 282.739 656.639 282.558 656.946C282.385 657.255 282.235 657.593 282.108 657.96C282.196 657.879 282.308 657.806 282.442 657.743C282.586 657.672 282.735 657.619 282.888 657.584C283.051 657.541 283.215 657.516 283.379 657.507C283.546 657.49 283.703 657.495 283.853 657.524C284.277 657.605 284.648 657.749 284.967 657.957C285.295 658.158 285.56 658.413 285.762 658.72C285.965 659.02 286.099 659.363 286.163 659.75C286.237 660.131 286.231 660.545 286.145 660.993C286.063 661.425 285.918 661.817 285.713 662.168C285.508 662.512 285.25 662.797 284.938 663.022C284.634 663.249 284.286 663.406 283.895 663.494C283.503 663.582 283.084 663.583 282.636 663.498ZM283.665 658.759C283.154 658.661 282.724 658.741 282.373 659C282.023 659.251 281.803 659.616 281.711 660.095C281.66 660.362 281.651 660.621 281.685 660.872C281.718 661.123 281.784 661.351 281.883 661.557C281.992 661.757 282.13 661.927 282.299 662.065C282.468 662.203 282.663 662.293 282.883 662.335C283.354 662.426 283.771 662.334 284.133 662.061C284.494 661.789 284.729 661.369 284.838 660.804C284.941 660.261 284.89 659.808 284.683 659.442C284.484 659.078 284.144 658.85 283.665 658.759Z" fill="#707171"/>
<path d="M329.287 672.159C329.244 672.216 329.204 672.253 329.168 672.271C329.132 672.288 329.075 672.289 328.996 672.274L328.042 672.092C327.924 672.069 327.852 672.039 327.827 672.002C327.8 671.972 327.811 671.917 327.858 671.837L332.376 664.894L328.617 664.174C328.562 664.164 328.517 664.139 328.484 664.1C328.452 664.053 328.443 663.999 328.455 663.936L328.613 663.111C328.637 662.985 328.715 662.935 328.849 662.96L333.87 663.922C334.003 663.947 334.079 663.978 334.096 664.014C334.123 664.043 334.129 664.101 334.112 664.188L333.974 664.907C333.962 664.97 333.931 665.029 333.879 665.084L329.287 672.159Z" fill="#707171"/>
</g>
<path d="M74.7515 451.386C87.276 455.989 112.445 472.55 112.923 501.964C113.52 538.733 142.598 533.099 158.146 539.639C173.694 546.179 197.91 486.161 214.658 483.768C231.407 481.374 215.878 607.707 240.077 616.921C264.276 626.135 283.863 563.705 301.051 566.995C314.801 569.627 338.865 574.233 349.177 576.208" stroke="black"/>
<rect x="13" y="201.298" width="375" height="207" rx="8" transform="rotate(-2.18527 13 201.298)" fill="white"/>
<g clip-path="url(#clip6_5627_6452)">
<g clip-path="url(#clip7_5627_6452)">
<circle cx="262.441" cy="241.44" r="11.4407" fill="#EDEAE3"/>
<path d="M267.402 241.734C267.74 241.734 268.02 242.011 267.956 242.343C267.892 242.673 267.777 242.996 267.612 243.306C267.347 243.804 266.958 244.257 266.468 244.638C265.977 245.019 265.395 245.322 264.755 245.528C264.114 245.735 263.427 245.841 262.734 245.841C262.041 245.841 261.354 245.735 260.713 245.528C260.073 245.322 259.491 245.019 259 244.638C258.51 244.257 258.121 243.804 257.856 243.306C257.691 242.996 257.576 242.673 257.512 242.343C257.448 242.011 257.728 241.734 258.066 241.734L262.734 241.734H267.402Z" fill="#1F1E1F"/>
<circle cx="260.974" cy="239.388" r="1.1734" fill="#1F1E1F"/>
<circle cx="264.494" cy="239.388" r="1.1734" fill="#1F1E1F"/>
<path d="M282.805 244.329C282.805 244.422 282.758 244.469 282.665 244.469H282.255C282.161 244.469 282.115 244.422 282.115 244.329V237.829C281.908 238.002 281.715 238.166 281.535 238.319C281.355 238.472 281.165 238.636 280.965 238.809C280.891 238.869 280.825 238.862 280.765 238.789L280.565 238.549C280.545 238.516 280.535 238.482 280.535 238.449C280.535 238.409 280.551 238.376 280.585 238.349L282.135 237.049C282.161 237.022 282.201 237.009 282.255 237.009H282.525C282.665 237.009 282.745 237.022 282.765 237.049C282.791 237.069 282.805 237.149 282.805 237.289V244.329ZM286.079 244.469C286.006 244.469 285.949 244.466 285.909 244.459C285.876 244.459 285.849 244.449 285.829 244.429C285.816 244.416 285.806 244.389 285.799 244.349C285.799 244.316 285.799 244.262 285.799 244.189L285.809 243.969C285.809 243.882 285.836 243.812 285.889 243.759L287.539 241.939C288.766 240.612 289.379 239.606 289.379 238.919C289.379 238.519 289.246 238.186 288.979 237.919C288.719 237.659 288.396 237.529 288.009 237.529C287.469 237.529 286.906 237.679 286.319 237.979C286.226 238.026 286.173 238.006 286.159 237.919L286.099 237.589C286.079 237.476 286.113 237.406 286.199 237.379C286.539 237.226 286.846 237.112 287.119 237.039C287.393 236.966 287.673 236.929 287.959 236.929C288.599 236.929 289.109 237.089 289.489 237.409C289.916 237.756 290.129 238.249 290.129 238.889C290.129 239.136 290.069 239.406 289.949 239.699C289.829 239.992 289.663 240.299 289.449 240.619C289.316 240.806 289.126 241.049 288.879 241.349C288.639 241.649 288.363 241.969 288.049 242.309C287.816 242.562 287.583 242.819 287.349 243.079C287.123 243.339 286.893 243.596 286.659 243.849H290.159C290.253 243.849 290.299 243.896 290.299 243.989V244.329C290.299 244.422 290.253 244.469 290.159 244.469H286.079ZM293.104 241.319C292.944 241.319 292.814 241.309 292.714 241.289C292.62 241.269 292.547 241.232 292.494 241.179C292.44 241.119 292.404 241.046 292.384 240.959C292.364 240.866 292.354 240.749 292.354 240.609V236.669C292.354 236.636 292.367 236.609 292.394 236.589C292.42 236.562 292.45 236.549 292.484 236.549H292.914C292.947 236.549 292.974 236.562 292.994 236.589C293.02 236.616 293.034 236.642 293.034 236.669V238.399H295.944V236.679C295.944 236.646 295.954 236.616 295.974 236.589C296 236.562 296.03 236.549 296.064 236.549H296.494C296.527 236.549 296.557 236.562 296.584 236.589C296.61 236.609 296.624 236.636 296.624 236.669V238.649H298.604V236.319C298.604 236.226 298.65 236.179 298.744 236.179H299.154C299.247 236.179 299.294 236.226 299.294 236.319V242.699C299.294 242.792 299.247 242.839 299.154 242.839H298.744C298.65 242.839 298.604 242.792 298.604 242.699V239.249H296.624V240.679C296.624 240.932 296.57 241.102 296.464 241.189C296.357 241.276 296.157 241.319 295.864 241.319H293.104ZM299.744 245.099C299.744 245.139 299.727 245.169 299.694 245.189C299.66 245.209 299.627 245.219 299.594 245.219H294.414C294.1 245.219 293.894 245.159 293.794 245.039C293.7 244.926 293.654 244.732 293.654 244.459V242.499C293.654 242.406 293.7 242.359 293.794 242.359H294.204C294.297 242.359 294.344 242.406 294.344 242.499V244.409C294.344 244.502 294.357 244.559 294.384 244.579C294.417 244.606 294.48 244.619 294.574 244.619H299.594C299.627 244.619 299.66 244.629 299.694 244.649C299.727 244.676 299.744 244.706 299.744 244.739V245.099ZM293.034 238.989V240.489C293.034 240.589 293.05 240.656 293.084 240.689C293.117 240.716 293.18 240.729 293.274 240.729H295.704C295.797 240.729 295.86 240.716 295.894 240.689C295.927 240.656 295.944 240.589 295.944 240.489V238.989H293.034Z" fill="#707171"/>
</g>
<g clip-path="url(#clip8_5627_6452)">
<circle cx="262.441" cy="269.322" r="11.4407" fill="#E7D7C7"/>
<path d="M258.626 268.733C259.8 270.504 262.968 272.984 266.254 268.733" stroke="#1F1E1F" stroke-width="0.612562" stroke-linecap="round"/>
<circle cx="264.201" cy="267.268" r="1.1734" fill="#1F1E1F"/>
<circle cx="260.681" cy="267.268" r="1.1734" fill="#1F1E1F"/>
<path d="M285.056 268.73C285.056 266.637 284.482 265.59 283.336 265.59C282.189 265.59 281.616 266.637 281.616 268.73C281.616 270.83 282.189 271.88 283.336 271.88C284.482 271.88 285.056 270.83 285.056 268.73ZM285.776 268.73C285.776 271.25 284.962 272.51 283.336 272.51C281.696 272.51 280.876 271.25 280.876 268.73C280.876 267.683 281.036 266.833 281.356 266.18C281.762 265.36 282.422 264.95 283.336 264.95C284.236 264.95 284.892 265.36 285.306 266.18C285.459 266.507 285.576 266.88 285.656 267.3C285.736 267.72 285.776 268.197 285.776 268.73ZM288.19 269.32C288.03 269.32 287.9 269.31 287.8 269.29C287.707 269.27 287.633 269.233 287.58 269.18C287.527 269.12 287.49 269.047 287.47 268.96C287.45 268.867 287.44 268.75 287.44 268.61V264.67C287.44 264.637 287.453 264.61 287.48 264.59C287.507 264.563 287.537 264.55 287.57 264.55H288C288.033 264.55 288.06 264.563 288.08 264.59C288.107 264.617 288.12 264.643 288.12 264.67V266.4H291.03V264.68C291.03 264.647 291.04 264.617 291.06 264.59C291.087 264.563 291.117 264.55 291.15 264.55H291.58C291.613 264.55 291.643 264.563 291.67 264.59C291.697 264.61 291.71 264.637 291.71 264.67V266.65H293.69V264.32C293.69 264.227 293.737 264.18 293.83 264.18H294.24C294.333 264.18 294.38 264.227 294.38 264.32V270.7C294.38 270.793 294.333 270.84 294.24 270.84H293.83C293.737 270.84 293.69 270.793 293.69 270.7V267.25H291.71V268.68C291.71 268.933 291.657 269.103 291.55 269.19C291.443 269.277 291.243 269.32 290.95 269.32H288.19ZM294.83 273.1C294.83 273.14 294.813 273.17 294.78 273.19C294.747 273.21 294.713 273.22 294.68 273.22H289.5C289.187 273.22 288.98 273.16 288.88 273.04C288.787 272.927 288.74 272.733 288.74 272.46V270.5C288.74 270.407 288.787 270.36 288.88 270.36H289.29C289.383 270.36 289.43 270.407 289.43 270.5V272.41C289.43 272.503 289.443 272.56 289.47 272.58C289.503 272.607 289.567 272.62 289.66 272.62H294.68C294.713 272.62 294.747 272.63 294.78 272.65C294.813 272.677 294.83 272.707 294.83 272.74V273.1ZM288.12 266.99V268.49C288.12 268.59 288.137 268.657 288.17 268.69C288.203 268.717 288.267 268.73 288.36 268.73H290.79C290.883 268.73 290.947 268.717 290.98 268.69C291.013 268.657 291.03 268.59 291.03 268.49V266.99H288.12Z" fill="#707171"/>
</g>
<g clip-path="url(#clip9_5627_6452)">
<circle cx="262.441" cy="297.202" r="11.4407" fill="#D4B2A9"/>
<circle cx="260.387" cy="295.149" r="1.1734" fill="#1F1E1F"/>
<circle cx="264.494" cy="295.149" r="1.1734" fill="#1F1E1F"/>
<path d="M258.041 298.375H266.841" stroke="#1F1E1F" stroke-width="0.612562" stroke-linecap="round"/>
<path d="M286.067 298.862V294.402C285.574 295.148 285.084 295.892 284.597 296.632C284.11 297.372 283.617 298.115 283.117 298.862H286.067ZM286.747 301.092C286.747 301.185 286.7 301.232 286.607 301.232H286.207C286.114 301.232 286.067 301.185 286.067 301.092V299.472H282.767C282.627 299.472 282.544 299.462 282.517 299.442C282.497 299.415 282.487 299.332 282.487 299.192V298.882C282.487 298.822 282.49 298.782 282.497 298.762C282.504 298.742 282.524 298.705 282.557 298.652L285.747 293.892C285.787 293.832 285.814 293.798 285.827 293.792C285.847 293.778 285.894 293.772 285.967 293.772H286.467C286.607 293.772 286.687 293.785 286.707 293.812C286.734 293.832 286.747 293.912 286.747 294.052V298.862H287.737C287.83 298.862 287.877 298.908 287.877 299.002V299.332C287.877 299.425 287.83 299.472 287.737 299.472H286.747V301.092ZM290.071 298.082C289.911 298.082 289.781 298.072 289.681 298.052C289.588 298.032 289.515 297.995 289.461 297.942C289.408 297.882 289.371 297.808 289.351 297.722C289.331 297.628 289.321 297.512 289.321 297.372V293.432C289.321 293.398 289.335 293.372 289.361 293.352C289.388 293.325 289.418 293.312 289.451 293.312H289.881C289.915 293.312 289.941 293.325 289.961 293.352C289.988 293.378 290.001 293.405 290.001 293.432V295.162H292.911V293.442C292.911 293.408 292.921 293.378 292.941 293.352C292.968 293.325 292.998 293.312 293.031 293.312H293.461C293.495 293.312 293.525 293.325 293.551 293.352C293.578 293.372 293.591 293.398 293.591 293.432V295.412H295.571V293.082C295.571 292.988 295.618 292.942 295.711 292.942H296.121C296.215 292.942 296.261 292.988 296.261 293.082V299.462C296.261 299.555 296.215 299.602 296.121 299.602H295.711C295.618 299.602 295.571 299.555 295.571 299.462V296.012H293.591V297.442C293.591 297.695 293.538 297.865 293.431 297.952C293.325 298.038 293.125 298.082 292.831 298.082H290.071ZM296.711 301.862C296.711 301.902 296.695 301.932 296.661 301.952C296.628 301.972 296.595 301.982 296.561 301.982H291.381C291.068 301.982 290.861 301.922 290.761 301.802C290.668 301.688 290.621 301.495 290.621 301.222V299.262C290.621 299.168 290.668 299.122 290.761 299.122H291.171C291.265 299.122 291.311 299.168 291.311 299.262V301.172C291.311 301.265 291.325 301.322 291.351 301.342C291.385 301.368 291.448 301.382 291.541 301.382H296.561C296.595 301.382 296.628 301.392 296.661 301.412C296.695 301.438 296.711 301.468 296.711 301.502V301.862ZM290.001 295.752V297.252C290.001 297.352 290.018 297.418 290.051 297.452C290.085 297.478 290.148 297.492 290.241 297.492H292.671C292.765 297.492 292.828 297.478 292.861 297.452C292.895 297.418 292.911 297.352 292.911 297.252V295.752H290.001Z" fill="#707171"/>
</g>
<g clip-path="url(#clip10_5627_6452)">
<circle cx="262.441" cy="325.202" r="11.4407" fill="#C88973"/>
<path d="M258.627 327.845C259.996 325.902 263.321 323.715 266.254 327.845" stroke="#1F1E1F" stroke-width="0.612562" stroke-linecap="round"/>
<circle cx="264.2" cy="323.149" r="1.1734" fill="#1F1E1F"/>
<circle cx="260.681" cy="323.149" r="1.1734" fill="#1F1E1F"/>
<path d="M286.747 323.512C286.747 323.132 286.58 322.832 286.247 322.612C285.954 322.405 285.61 322.302 285.217 322.302C284.79 322.302 284.43 322.408 284.137 322.622C283.817 322.835 283.657 323.132 283.657 323.512C283.657 323.858 283.824 324.172 284.157 324.452C284.25 324.538 284.374 324.632 284.527 324.732C284.687 324.832 284.874 324.932 285.087 325.032C285.14 325.058 285.184 325.072 285.217 325.072C285.25 325.065 285.3 325.045 285.367 325.012C285.794 324.778 286.13 324.535 286.377 324.282C286.624 324.022 286.747 323.765 286.747 323.512ZM286.997 327.262C286.997 326.895 286.83 326.575 286.497 326.302C286.39 326.215 286.24 326.118 286.047 326.012C285.854 325.905 285.617 325.788 285.337 325.662C285.25 325.615 285.154 325.615 285.047 325.662C284.787 325.762 284.557 325.868 284.357 325.982C284.157 326.088 283.997 326.188 283.877 326.282C283.744 326.415 283.634 326.572 283.547 326.752C283.467 326.925 283.427 327.112 283.427 327.312C283.427 327.718 283.617 328.052 283.997 328.312C284.344 328.572 284.75 328.702 285.217 328.702C285.697 328.702 286.1 328.588 286.427 328.362C286.807 328.102 286.997 327.735 286.997 327.262ZM287.697 327.312C287.697 327.638 287.627 327.932 287.487 328.192C287.354 328.452 287.16 328.668 286.907 328.842C286.687 328.988 286.434 329.102 286.147 329.182C285.86 329.262 285.55 329.302 285.217 329.302C284.89 329.302 284.584 329.258 284.297 329.172C284.017 329.085 283.76 328.965 283.527 328.812C283.274 328.632 283.077 328.415 282.937 328.162C282.797 327.902 282.727 327.618 282.727 327.312C282.727 326.792 282.9 326.368 283.247 326.042C283.514 325.788 283.924 325.558 284.477 325.352C283.464 324.852 282.957 324.212 282.957 323.432C282.957 323.152 283.027 322.905 283.167 322.692C283.307 322.472 283.504 322.275 283.757 322.102C283.97 321.968 284.197 321.868 284.437 321.802C284.684 321.728 284.944 321.692 285.217 321.692C285.537 321.692 285.824 321.728 286.077 321.802C286.33 321.868 286.56 321.972 286.767 322.112C287.227 322.432 287.457 322.872 287.457 323.432C287.457 324.125 286.937 324.765 285.897 325.352C286.17 325.452 286.414 325.562 286.627 325.682C286.847 325.802 287.024 325.922 287.157 326.042C287.517 326.362 287.697 326.785 287.697 327.312ZM290.071 326.082C289.911 326.082 289.781 326.072 289.681 326.052C289.588 326.032 289.515 325.995 289.461 325.942C289.408 325.882 289.371 325.808 289.351 325.722C289.331 325.628 289.321 325.512 289.321 325.372V321.432C289.321 321.398 289.335 321.372 289.361 321.352C289.388 321.325 289.418 321.312 289.451 321.312H289.881C289.915 321.312 289.941 321.325 289.961 321.352C289.988 321.378 290.001 321.405 290.001 321.432V323.162H292.911V321.442C292.911 321.408 292.921 321.378 292.941 321.352C292.968 321.325 292.998 321.312 293.031 321.312H293.461C293.495 321.312 293.525 321.325 293.551 321.352C293.578 321.372 293.591 321.398 293.591 321.432V323.412H295.571V321.082C295.571 320.988 295.618 320.942 295.711 320.942H296.121C296.215 320.942 296.261 320.988 296.261 321.082V327.462C296.261 327.555 296.215 327.602 296.121 327.602H295.711C295.618 327.602 295.571 327.555 295.571 327.462V324.012H293.591V325.442C293.591 325.695 293.538 325.865 293.431 325.952C293.325 326.038 293.125 326.082 292.831 326.082H290.071ZM296.711 329.862C296.711 329.902 296.695 329.932 296.661 329.952C296.628 329.972 296.595 329.982 296.561 329.982H291.381C291.068 329.982 290.861 329.922 290.761 329.802C290.668 329.688 290.621 329.495 290.621 329.222V327.262C290.621 327.168 290.668 327.122 290.761 327.122H291.171C291.265 327.122 291.311 327.168 291.311 327.262V329.172C291.311 329.265 291.325 329.322 291.351 329.342C291.385 329.368 291.448 329.382 291.541 329.382H296.561C296.595 329.382 296.628 329.392 296.661 329.412C296.695 329.438 296.711 329.468 296.711 329.502V329.862ZM290.001 323.752V325.252C290.001 325.352 290.018 325.418 290.051 325.452C290.085 325.478 290.148 325.492 290.241 325.492H292.671C292.765 325.492 292.828 325.478 292.861 325.452C292.895 325.418 292.911 325.352 292.911 325.252V323.752H290.001Z" fill="#707171"/>
</g>
<g clip-path="url(#clip11_5627_6452)">
<circle cx="262.441" cy="353.202" r="11.4407" fill="#AA5C4E"/>
<path d="M258.626 355.841C259.995 353.898 263.32 351.711 266.254 355.841" stroke="#1F1E1F" stroke-width="0.612562" stroke-linecap="round"/>
<path d="M265.668 351.153C265.668 351.801 265.142 352.326 264.494 352.326C263.846 352.326 263.321 351.801 263.321 351.153C263.321 350.504 263.846 350.272 264.494 350.272C265.142 350.272 265.668 350.504 265.668 351.153Z" fill="#1F1E1F"/>
<line x1="264.19" y1="350.563" x2="267.589" y2="349.393" stroke="#1F1E1F" stroke-width="0.612562" stroke-linecap="round"/>
<path d="M262.147 351.147C262.147 351.795 261.622 352.32 260.974 352.32C260.326 352.32 259.8 351.795 259.8 351.147C259.8 350.499 260.326 350.267 260.974 350.267C261.622 350.267 262.147 350.499 262.147 351.147Z" fill="#1F1E1F"/>
<line x1="261.475" y1="350.674" x2="258.195" y2="349.205" stroke="#1F1E1F" stroke-width="0.612562" stroke-linecap="round"/>
<path d="M286.747 351.512C286.747 351.132 286.58 350.832 286.247 350.612C285.954 350.405 285.61 350.302 285.217 350.302C284.79 350.302 284.43 350.408 284.137 350.622C283.817 350.835 283.657 351.132 283.657 351.512C283.657 351.858 283.824 352.172 284.157 352.452C284.25 352.538 284.374 352.632 284.527 352.732C284.687 352.832 284.874 352.932 285.087 353.032C285.14 353.058 285.184 353.072 285.217 353.072C285.25 353.065 285.3 353.045 285.367 353.012C285.794 352.778 286.13 352.535 286.377 352.282C286.624 352.022 286.747 351.765 286.747 351.512ZM286.997 355.262C286.997 354.895 286.83 354.575 286.497 354.302C286.39 354.215 286.24 354.118 286.047 354.012C285.854 353.905 285.617 353.788 285.337 353.662C285.25 353.615 285.154 353.615 285.047 353.662C284.787 353.762 284.557 353.868 284.357 353.982C284.157 354.088 283.997 354.188 283.877 354.282C283.744 354.415 283.634 354.572 283.547 354.752C283.467 354.925 283.427 355.112 283.427 355.312C283.427 355.718 283.617 356.052 283.997 356.312C284.344 356.572 284.75 356.702 285.217 356.702C285.697 356.702 286.1 356.588 286.427 356.362C286.807 356.102 286.997 355.735 286.997 355.262ZM287.697 355.312C287.697 355.638 287.627 355.932 287.487 356.192C287.354 356.452 287.16 356.668 286.907 356.842C286.687 356.988 286.434 357.102 286.147 357.182C285.86 357.262 285.55 357.302 285.217 357.302C284.89 357.302 284.584 357.258 284.297 357.172C284.017 357.085 283.76 356.965 283.527 356.812C283.274 356.632 283.077 356.415 282.937 356.162C282.797 355.902 282.727 355.618 282.727 355.312C282.727 354.792 282.9 354.368 283.247 354.042C283.514 353.788 283.924 353.558 284.477 353.352C283.464 352.852 282.957 352.212 282.957 351.432C282.957 351.152 283.027 350.905 283.167 350.692C283.307 350.472 283.504 350.275 283.757 350.102C283.97 349.968 284.197 349.868 284.437 349.802C284.684 349.728 284.944 349.692 285.217 349.692C285.537 349.692 285.824 349.728 286.077 349.802C286.33 349.868 286.56 349.972 286.767 350.112C287.227 350.432 287.457 350.872 287.457 351.432C287.457 352.125 286.937 352.765 285.897 353.352C286.17 353.452 286.414 353.562 286.627 353.682C286.847 353.802 287.024 353.922 287.157 354.042C287.517 354.362 287.697 354.785 287.697 355.312ZM290.071 354.082C289.911 354.082 289.781 354.072 289.681 354.052C289.588 354.032 289.515 353.995 289.461 353.942C289.408 353.882 289.371 353.808 289.351 353.722C289.331 353.628 289.321 353.512 289.321 353.372V349.432C289.321 349.398 289.335 349.372 289.361 349.352C289.388 349.325 289.418 349.312 289.451 349.312H289.881C289.915 349.312 289.941 349.325 289.961 349.352C289.988 349.378 290.001 349.405 290.001 349.432V351.162H292.911V349.442C292.911 349.408 292.921 349.378 292.941 349.352C292.968 349.325 292.998 349.312 293.031 349.312H293.461C293.495 349.312 293.525 349.325 293.551 349.352C293.578 349.372 293.591 349.398 293.591 349.432V351.412H295.571V349.082C295.571 348.988 295.618 348.942 295.711 348.942H296.121C296.215 348.942 296.261 348.988 296.261 349.082V355.462C296.261 355.555 296.215 355.602 296.121 355.602H295.711C295.618 355.602 295.571 355.555 295.571 355.462V352.012H293.591V353.442C293.591 353.695 293.538 353.865 293.431 353.952C293.325 354.038 293.125 354.082 292.831 354.082H290.071ZM296.711 357.862C296.711 357.902 296.695 357.932 296.661 357.952C296.628 357.972 296.595 357.982 296.561 357.982H291.381C291.068 357.982 290.861 357.922 290.761 357.802C290.668 357.688 290.621 357.495 290.621 357.222V355.262C290.621 355.168 290.668 355.122 290.761 355.122H291.171C291.265 355.122 291.311 355.168 291.311 355.262V357.172C291.311 357.265 291.325 357.322 291.351 357.342C291.385 357.368 291.448 357.382 291.541 357.382H296.561C296.595 357.382 296.628 357.392 296.661 357.412C296.695 357.438 296.711 357.468 296.711 357.502V357.862ZM290.001 351.752V353.252C290.001 353.352 290.018 353.418 290.051 353.452C290.085 353.478 290.148 353.492 290.241 353.492H292.671C292.765 353.492 292.828 353.478 292.861 353.452C292.895 353.418 292.911 353.352 292.911 353.252V351.752H290.001Z" fill="#707171"/>
</g>
</g>
<path d="M194.975 304.865C197.736 304.939 199.931 307.239 199.674 309.989C198.397 323.631 193.402 336.698 185.19 347.745C175.98 360.133 163.173 369.377 148.515 374.217C133.857 379.057 118.063 379.256 103.288 374.788C90.1122 370.803 78.319 363.279 69.17 353.079C67.3261 351.023 67.7199 347.868 69.8938 346.165L82.6863 336.144C84.8602 334.442 87.9856 334.844 89.9021 336.833C95.6664 342.812 102.884 347.241 110.887 349.662C120.491 352.566 130.757 352.437 140.285 349.291C149.812 346.145 158.137 340.136 164.123 332.084C169.112 325.374 172.273 317.518 173.344 309.281C173.699 306.543 175.97 304.358 178.731 304.432L194.975 304.865Z" fill="#EDEAE3"/>
<path d="M69.0147 345.019C66.8061 346.676 63.6566 346.238 62.1497 343.924C57.6984 337.088 54.3859 329.561 52.353 321.638C49.9053 312.098 49.3606 302.169 50.7501 292.418C52.1396 282.668 55.436 273.286 60.4511 264.809C64.6163 257.769 69.8993 251.468 76.0831 246.147C78.1763 244.346 81.3229 244.805 82.9805 247.014L92.735 260.01C94.3927 262.219 93.9255 265.335 91.8982 267.21C88.4374 270.411 85.4526 274.103 83.0432 278.176C79.7834 283.686 77.6407 289.784 76.7376 296.122C75.8344 302.459 76.1884 308.913 77.7794 315.114C78.9554 319.698 80.79 324.077 83.2189 328.117C84.6417 330.484 84.2198 333.606 82.0113 335.264L69.0147 345.019Z" fill="#AA5C4E"/>
<path d="M84.4475 245.942C82.8478 243.691 83.3678 240.554 85.7202 239.108C100.459 230.046 117.932 226.331 135.175 228.692C152.418 231.054 168.249 239.328 180.01 252.019C181.886 254.044 181.544 257.206 179.398 258.944L166.77 269.171C164.624 270.909 161.492 270.557 159.544 268.6C152.041 261.065 142.24 256.155 131.614 254.7C120.988 253.245 110.228 255.339 100.975 260.58C98.5723 261.941 95.4612 261.438 93.8615 259.187L84.4475 245.942Z" fill="#C88973"/>
<path d="M180.171 259.915C182.347 258.216 185.505 258.594 187.055 260.879C194.677 272.107 199.11 285.197 199.879 298.746C200.036 301.503 197.758 303.722 194.997 303.694L178.747 303.533C175.986 303.505 173.796 301.239 173.541 298.49C172.835 290.887 170.352 283.554 166.293 277.086C164.825 274.747 165.187 271.617 167.363 269.917L180.171 259.915Z" fill="#D4B2A9"/>
</g>
<defs>
<clipPath id="clip0_5627_6452">
<rect width="331" height="115" fill="white" transform="translate(14.9927 16.5078) rotate(7.98878)"/>
</clipPath>
<clipPath id="clip1_5627_6452">
<rect width="331" height="84" fill="white" transform="translate(14.9927 16.5078) rotate(7.98878)"/>
</clipPath>
<clipPath id="clip2_5627_6452">
<rect x="2.62354" y="104.645" width="331" height="26" rx="13" transform="rotate(7.98878 2.62354 104.645)" fill="white"/>
</clipPath>
<clipPath id="clip3_5627_6452">
<rect width="37" height="172.458" fill="white" transform="translate(37.3965 428.454) rotate(10.8369)"/>
</clipPath>
<clipPath id="clip4_5627_6452">
<rect width="34.4915" height="34.4915" fill="white" transform="translate(37.3965 428.454) rotate(10.8369)"/>
</clipPath>
<clipPath id="clip5_5627_6452">
<rect width="300" height="14" fill="white" transform="translate(45.1392 606.077) rotate(10.8369)"/>
</clipPath>
<clipPath id="clip6_5627_6452">
<rect width="49.8814" height="139.763" fill="white" transform="translate(251 224.999)"/>
</clipPath>
<clipPath id="clip7_5627_6452">
<rect width="49.8814" height="27.8814" fill="white" transform="translate(251 224.999)"/>
</clipPath>
<clipPath id="clip8_5627_6452">
<rect width="48" height="27.8814" fill="white" transform="translate(251 252.881)"/>
</clipPath>
<clipPath id="clip9_5627_6452">
<rect width="49.8814" height="28" fill="white" transform="translate(251 280.762)"/>
</clipPath>
<clipPath id="clip10_5627_6452">
<rect width="49.8814" height="28" fill="white" transform="translate(251 308.762)"/>
</clipPath>
<clipPath id="clip11_5627_6452">
<rect width="49.8814" height="28" fill="white" transform="translate(251 336.762)"/>
</clipPath>
</defs>
</svg>
