<svg width="402" height="511" viewBox="0 0 402 511" fill="none" xmlns="http://www.w3.org/2000/svg">
<mask id="mask0_5416_13398" style="mask-type:alpha" maskUnits="userSpaceOnUse" x="0" y="0" width="402" height="511">
<path d="M0.5 510.116L0 104.616C29.5 91.1162 58.7505 101.023 69.3757 107.915C86.2556 117.764 97.8603 133.19 103.217 150.495C115.513 145.407 129.598 144.45 143.282 148.763C148.407 150.378 153.153 152.631 157.462 155.407C169.091 136.06 190.284 123.116 214.5 123.116C242.384 123.116 266.26 140.278 276.141 164.616C277.094 163.174 279.2 160.122 280 159.453C260.873 139.401 250.72 111.144 254.762 81.5535C261.81 29.95 309.356 -6.16933 360.96 0.87876C371 2.25006 387 6.61621 402 16.8402V510.116H0.5Z" fill="#D9D9D9"/>
</mask>
<g mask="url(#mask0_5416_13398)">
<circle cx="31.5771" cy="172.693" r="75" transform="rotate(30.2638 31.5771 172.693)" fill="#D4B2A9"/>
<circle cx="26.7345" cy="154.281" r="7.69231" transform="rotate(30.2638 26.7345 154.281)" fill="#1F1E1F"/>
<circle cx="49.9886" cy="167.85" r="7.69231" transform="rotate(30.2638 49.9886 167.85)" fill="#1F1E1F"/>
<path d="M2.78613 164.798L52.6158 193.874" stroke="#1F1E1F" stroke-width="4.01569" stroke-linecap="round"/>
<circle cx="164.5" cy="326.616" r="92.5" fill="#D4B2A9"/>
<circle cx="147.897" cy="310.014" r="9.48718" fill="#1F1E1F"/>
<circle cx="181.102" cy="310.014" r="9.48718" fill="#1F1E1F"/>
<path d="M128.923 336.103H200.077" stroke="#1F1E1F" stroke-width="4.95268" stroke-linecap="round"/>
<circle cx="184" cy="480.116" r="75" fill="#E7D7C7"/>
<path d="M159 476.269C166.692 487.878 187.461 504.132 209 476.269" stroke="#1F1E1F" stroke-width="4.01569" stroke-linecap="round"/>
<circle cx="195.538" cy="466.654" r="7.69231" fill="#1F1E1F"/>
<circle cx="172.462" cy="466.654" r="7.69231" fill="#1F1E1F"/>
<circle cx="46.002" cy="308.119" r="94.3039" transform="rotate(-22.2633 46.002 308.119)" fill="#E7D7C7"/>
<path d="M15.0776 315.553C29.5593 325.398 61.4702 334.417 73.2602 291.734" stroke="#1F1E1F" stroke-width="5.04926" stroke-linecap="round"/>
<circle cx="53.0153" cy="286.956" r="9.67219" transform="rotate(-22.2633 53.0153 286.956)" fill="#1F1E1F"/>
<circle cx="26.1625" cy="297.951" r="9.67219" transform="rotate(-22.2633 26.1625 297.951)" fill="#1F1E1F"/>
<circle cx="348.198" cy="94.3153" r="94.3039" transform="rotate(7.77743 348.198 94.3153)" fill="#E7D7C7"/>
<path d="M317.706 85.2686C325.314 101.041 348.423 124.824 379.997 93.7764" stroke="#1F1E1F" stroke-width="5.04926" stroke-linecap="round"/>
<circle cx="364.864" cy="79.5064" r="9.67219" transform="rotate(7.77743 364.864 79.5064)" fill="#1F1E1F"/>
<circle cx="336.114" cy="75.5816" r="9.67219" transform="rotate(7.77743 336.114 75.5816)" fill="#1F1E1F"/>
<circle cx="377" cy="446.116" r="75" fill="#D4B2A9"/>
<circle cx="363.538" cy="432.654" r="7.69231" fill="#1F1E1F"/>
<circle cx="390.461" cy="432.654" r="7.69231" fill="#1F1E1F"/>
<path d="M348.154 453.808H405.846" stroke="#1F1E1F" stroke-width="4.01569" stroke-linecap="round"/>
<circle cx="58.5" cy="441.616" r="94.5" fill="#AA5C4E"/>
<path d="M27 463.423C38.3077 447.373 65.7692 429.313 90 463.423" stroke="#1F1E1F" stroke-width="5.05976" stroke-linecap="round"/>
<path d="M85.1541 424.662C85.1541 430.015 80.8148 434.354 75.4618 434.354C70.1089 434.354 65.7695 430.015 65.7695 424.662C65.7695 419.309 70.1089 417.393 75.4618 417.393C80.8148 417.393 85.1541 419.309 85.1541 424.662Z" fill="#1F1E1F"/>
<line x1="72.9507" y1="419.8" x2="101.02" y2="410.135" stroke="#1F1E1F" stroke-width="5.05976" stroke-linecap="round"/>
<path d="M56.0763 424.642C56.0763 429.995 51.7369 434.335 46.384 434.335C41.031 434.335 36.6917 429.995 36.6917 424.642C36.6917 419.289 41.031 417.373 46.384 417.373C51.7369 417.373 56.0763 419.289 56.0763 424.642Z" fill="#1F1E1F"/>
<line x1="50.5234" y1="420.738" x2="23.4298" y2="408.602" stroke="#1F1E1F" stroke-width="5.05976" stroke-linecap="round"/>
<circle cx="258.715" cy="248.832" r="60.321" transform="rotate(2.32172 258.715 248.832)" fill="#E7D7C7"/>
<path d="M238.749 244.927C244.552 254.507 260.713 268.245 278.93 246.556" stroke="#1F1E1F" stroke-width="3.22973" stroke-linecap="round"/>
<circle cx="268.425" cy="238.389" r="6.18677" transform="rotate(2.32172 268.425 238.389)" fill="#1F1E1F"/>
<circle cx="249.881" cy="237.638" r="6.18677" transform="rotate(2.32172 249.881 237.638)" fill="#1F1E1F"/>
<circle cx="210" cy="341.116" r="75" transform="rotate(14.6989 210 341.116)" fill="#C88973"/>
<path d="M181.427 351.513C193.339 341.469 218.058 333.135 229.79 364.2" stroke="#1F1E1F" stroke-width="4.01569" stroke-linecap="round"/>
<circle cx="224.577" cy="331.022" r="7.69231" transform="rotate(14.6989 224.577 331.022)" fill="#1F1E1F"/>
<circle cx="202.255" cy="325.167" r="7.69231" transform="rotate(14.6989 202.255 325.167)" fill="#1F1E1F"/>
<circle cx="214.5" cy="189.616" r="66.5" fill="#AA5C4E"/>
<path d="M192.333 204.961C200.291 193.667 219.615 180.958 236.667 204.961" stroke="#1F1E1F" stroke-width="3.56058" stroke-linecap="round"/>
<path d="M233.256 177.686C233.256 181.453 230.203 184.506 226.436 184.506C222.669 184.506 219.615 181.453 219.615 177.686C219.615 173.919 222.669 172.57 226.436 172.57C230.203 172.57 233.256 173.919 233.256 177.686Z" fill="#1F1E1F"/>
<line x1="224.669" y1="174.264" x2="244.422" y2="167.463" stroke="#1F1E1F" stroke-width="3.56058" stroke-linecap="round"/>
<path d="M212.794 177.673C212.794 181.44 209.74 184.494 205.973 184.494C202.206 184.494 199.153 181.44 199.153 177.673C199.153 173.906 202.206 172.558 205.973 172.558C209.74 172.558 212.794 173.906 212.794 177.673Z" fill="#1F1E1F"/>
<line x1="208.887" y1="174.925" x2="189.821" y2="166.386" stroke="#1F1E1F" stroke-width="3.56058" stroke-linecap="round"/>
<circle cx="343.347" cy="214.463" r="83.9076" transform="rotate(-9.28538 343.347 214.463)" fill="#D4B2A9"/>
<circle cx="326.053" cy="202.028" r="8.60591" transform="rotate(-9.28538 326.053 202.028)" fill="#1F1E1F"/>
<circle cx="355.78" cy="197.169" r="8.60591" transform="rotate(-9.28538 355.78 197.169)" fill="#1F1E1F"/>
<path d="M312.886 228.161L376.585 217.747" stroke="#1F1E1F" stroke-width="4.49262" stroke-linecap="round"/>
<circle cx="125.636" cy="204.752" r="58.7041" transform="rotate(17.494 125.636 204.752)" fill="#EDEAE3"/>
<path d="M149.462 213.84C151.117 214.361 152.06 216.147 151.235 217.674C150.415 219.19 149.352 220.595 148.068 221.856C146.001 223.885 143.399 225.501 140.411 226.611C137.424 227.721 134.108 228.303 130.655 228.325C127.201 228.347 123.677 227.808 120.284 226.738C116.89 225.669 113.694 224.09 110.877 222.092C108.06 220.093 105.678 217.715 103.867 215.092C102.055 212.47 100.85 209.654 100.32 206.806C99.9908 205.037 99.926 203.277 100.124 201.565C100.323 199.84 102.119 198.918 103.775 199.44L126.618 206.64L149.462 213.84Z" fill="#1F1E1F"/>
<circle cx="121.625" cy="192.439" r="6.02093" transform="rotate(17.494 121.625 192.439)" fill="#1F1E1F"/>
<circle cx="138.852" cy="197.87" r="6.02093" transform="rotate(17.494 138.852 197.87)" fill="#1F1E1F"/>
<circle cx="347" cy="325.116" r="73" fill="#AA5C4E"/>
<path d="M322.667 341.962C331.402 329.564 352.615 315.612 371.333 341.962" stroke="#1F1E1F" stroke-width="3.9086" stroke-linecap="round"/>
<path d="M367.59 312.021C367.59 316.156 364.238 319.508 360.103 319.508C355.968 319.508 352.616 316.156 352.616 312.021C352.616 307.886 355.968 306.405 360.103 306.405C364.238 306.405 367.59 307.886 367.59 312.021Z" fill="#1F1E1F"/>
<line x1="358.163" y1="308.265" x2="379.846" y2="300.799" stroke="#1F1E1F" stroke-width="3.9086" stroke-linecap="round"/>
<path d="M345.127 312.005C345.127 316.14 341.775 319.492 337.64 319.492C333.505 319.492 330.153 316.14 330.153 312.005C330.153 307.87 333.505 306.39 337.64 306.39C341.775 306.39 345.127 307.87 345.127 312.005Z" fill="#1F1E1F"/>
<line x1="340.838" y1="308.989" x2="319.909" y2="299.614" stroke="#1F1E1F" stroke-width="3.9086" stroke-linecap="round"/>
<circle cx="299.037" cy="444.153" r="86.5" transform="rotate(-12.3828 299.037 444.153)" fill="#EDEAE3"/>
<path d="M336.15 438.276C338.648 437.727 341.164 439.317 341.23 441.874C341.295 444.413 340.969 446.987 340.253 449.541C339.101 453.651 336.963 457.625 333.96 461.236C330.958 464.847 327.15 468.025 322.753 470.588C318.357 473.151 313.458 475.049 308.338 476.173C303.217 477.297 297.974 477.626 292.908 477.14C287.843 476.655 283.053 475.365 278.814 473.343C274.575 471.322 270.969 468.609 268.201 465.36C266.482 463.341 265.107 461.14 264.103 458.807C263.091 456.457 264.71 453.96 267.208 453.412L301.679 445.844L336.15 438.276Z" fill="#1F1E1F"/>
<circle cx="284.876" cy="431.366" r="8.87179" transform="rotate(-12.3828 284.876 431.366)" fill="#1F1E1F"/>
<circle cx="310.872" cy="425.658" r="8.87179" transform="rotate(-12.3828 310.872 425.658)" fill="#1F1E1F"/>
</g>
</svg>
