<svg width="83" height="28" viewBox="0 0 83 28" fill="none" xmlns="http://www.w3.org/2000/svg">
<rect width="83" height="28" rx="14" fill="#534C48"/>
<g clip-path="url(#clip0_5651_1651)">
<path d="M16 8V10.4648C16 10.7992 16.1727 11.1092 16.4382 11.3125C19.0842 13.3388 17.8171 15.228 16.4954 16.1841C16.2012 16.397 16 16.7249 16 17.0881V20C16 20.8 16.6667 21 17 21H33C33.8 21 34 20.3333 34 20V17.5352C34 17.2008 33.8266 16.8931 33.5677 16.6815C31.3656 14.8811 32.3598 12.5537 33.6318 11.3208C33.8534 11.1061 34 10.8199 34 10.5113V8C34 7.2 33.3333 7 33 7H17C16.2 7 16 7.66667 16 8Z" fill="#B6B3AC"/>
</g>
<defs>
<clipPath id="clip0_5651_1651">
<rect width="18" height="14" fill="white" transform="translate(16 7)"/>
</clipPath>
</defs>
</svg>
