<svg width="18" height="14" viewBox="0 0 18 14" fill="none" xmlns="http://www.w3.org/2000/svg">
<g clip-path="url(#clip0_5639_7472)">
<path d="M0 1V3.46482C0 3.79917 0.17273 4.10923 0.438191 4.31251C3.08424 6.33876 1.81708 8.22804 0.495449 9.1841C0.2012 9.39695 0 9.72492 0 10.0881V13C0 13.8 0.666667 14 1 14H17C17.8 14 18 13.3333 18 13V10.5352C18 10.2008 17.8266 9.89312 17.5677 9.68149C15.3656 7.88108 16.3598 5.55372 17.6318 4.32085C17.8534 4.10607 18 3.81988 18 3.51129V1C18 0.2 17.3333 0 17 0H1C0.2 0 0 0.666667 0 1Z" fill="#B6B3AC"/>
</g>
<defs>
<clipPath id="clip0_5639_7472">
<rect width="18" height="14" fill="white"/>
</clipPath>
</defs>
</svg>
